<svg width="182" height="45" viewBox="0 0 182 45" fill="none" xmlns="http://www.w3.org/2000/svg">
<path d="M61.1144 35.4244C58.1127 29.4051 58.4255 26.3187 64.1285 23.1332C64.7942 22.7614 65.0863 21.9442 64.7664 21.252C64.4344 20.5338 63.5775 20.2348 62.8483 20.5418C57.3773 22.8449 53.4908 21.9489 50.0551 17.1926C49.5757 16.5288 48.6513 16.3354 47.9822 16.8073C47.3794 17.2324 47.2052 18.0464 47.5507 18.6981C50.5727 24.3985 49.8237 27.3907 44.4218 31.2718C44.1024 31.5013 43.9484 31.9006 44.041 32.2829C44.2108 32.9843 45.2253 33.4942 45.8889 33.2104L47.3634 32.5797C50.3088 31.3199 56.0808 32.7201 58.139 35.467C58.6936 36.2072 59.0829 36.7061 59.3558 37.0398C59.7162 37.4807 60.2909 37.4008 60.7448 37.0572C61.2466 36.6773 61.3953 35.9876 61.1144 35.4244Z" fill="#228C7F"/>
<path d="M61.8547 15.7169C61.2631 17.9246 58.7187 19.4519 56.5109 18.8603C54.3032 18.2688 53.0903 15.4099 53.6819 13.2022C54.2734 10.9945 56.5036 10.096 58.7113 10.6875C60.919 11.2791 62.4462 13.5092 61.8547 15.7169Z" fill="#238C80"/>
<path d="M11.7451 13.3368C12.3367 15.5445 10.8967 18.1394 8.68901 18.731C6.4813 19.3225 4.00147 17.4532 3.40992 15.2454C2.81836 13.0377 4.30048 11.1445 6.50819 10.5529C8.7159 9.96139 11.1536 11.1291 11.7451 13.3368Z" fill="#FF7A01"/>
<path d="M40.1656 6.90955C40.1656 10.8142 36.6756 14.4596 32.8081 14.4596C28.9406 14.4596 25.7061 10.2783 25.7061 6.37356C25.7061 2.46886 28.9577 0 32.8252 0C36.6927 0 40.1656 3.00485 40.1656 6.90955Z" fill="#AA1E25"/>
<path d="M21.7867 30.8689C16.1775 27.1569 14.9052 24.3277 18.2514 18.7174C18.642 18.0625 18.4863 17.2088 17.8632 16.7693C17.2166 16.3133 16.325 16.4828 15.847 17.1133C12.2605 21.8433 8.44671 23.0106 3.09321 20.6094C2.3461 20.2743 1.44884 20.5689 1.10531 21.3122C0.795851 21.9817 1.05196 22.7738 1.67701 23.1654C7.14443 26.5911 7.99182 29.557 5.25422 35.619C5.09233 35.9775 5.15862 36.4002 5.42993 36.685C5.92774 37.2076 7.06127 37.1419 7.49402 36.5643L8.45563 35.2809C10.3766 32.7171 16.0754 31.0438 19.2313 32.3936C20.0816 32.7573 20.6682 32.9946 21.0714 33.1473C21.6039 33.3488 22.0617 32.9923 22.283 32.4677C22.5277 31.8879 22.3116 31.2162 21.7867 30.8689Z" fill="#F47500"/>
<path d="M48.3101 39.4466C40.5232 30.6464 39.6555 25.297 47.8388 17.3429C48.794 16.4144 48.9173 14.9034 48.0645 13.88C47.1796 12.8181 45.5985 12.7011 44.5067 13.5488C36.316 19.909 29.3525 20.1543 21.4044 13.6817C20.2952 12.7784 18.6479 12.8698 17.7322 13.9688C16.9072 14.9587 16.9813 16.4111 17.8589 17.3545C25.4676 25.5338 25.6228 30.899 18.4596 39.7472C17.911 40.4248 17.8082 41.3689 18.2257 42.1344C18.8499 43.2787 20.3505 43.5896 21.3755 42.7842L23.8195 40.8639C28.2203 37.4062 38.5934 37.1592 43.3085 40.8639C44.579 41.8622 45.4616 42.5279 46.0729 42.9678C46.8804 43.5487 47.814 43.1541 48.4247 42.3689C49.0997 41.5011 49.0387 40.27 48.3101 39.4466Z" fill="#AA1E25"/>
<mask id="path-7-outside-1" maskUnits="userSpaceOnUse" x="64.9817" y="18.0513" width="23.3843" height="21.2082" fill="black">
<rect fill="white" x="64.9817" y="18.0513" width="23.3843" height="21.2082"/>
<path d="M68.9663 34.1425C68.0601 34.1508 67.3764 33.9423 66.9154 33.517C66.4718 33.0914 66.2433 32.5123 66.2299 31.7796C66.2183 31.1479 66.3527 30.4012 66.6332 29.5394C66.9138 28.6776 67.2894 27.777 67.7603 26.8377C68.2309 25.8857 68.7542 24.9585 69.3303 24.0561C69.9239 23.1535 70.519 22.3393 71.1158 21.6136C71.7123 20.8753 72.2768 20.2888 72.8092 19.8543C73.3414 19.4072 73.7817 19.182 74.1303 19.1788C74.4266 19.1761 74.6381 19.3068 74.765 19.571C74.9093 19.835 74.9839 20.0996 74.9888 20.3649C74.9952 20.7187 74.8986 21.1492 74.6987 21.6564C74.4988 22.1637 74.2125 22.7097 73.8398 23.2943C73.4668 23.8663 73.0327 24.4326 72.5374 24.9931C72.0422 25.5537 71.5026 26.0704 70.9186 26.5432C70.3518 27.0033 69.7659 27.3688 69.1608 27.6398C69.0588 27.7797 68.9072 28.0717 68.7062 28.5158C68.5224 28.9471 68.3485 29.4478 68.1847 30.0179C68.038 30.5752 67.9696 31.1191 67.9793 31.6497C67.9888 32.1677 68.1012 32.59 68.3163 32.9165C68.5491 33.2555 68.927 33.4226 69.4498 33.4178C69.9553 33.4132 70.4753 33.2567 71.01 32.9486C71.545 32.653 71.9737 32.27 72.2963 31.7995C71.647 31.5654 71.1614 31.2224 70.8393 30.7705C70.517 30.306 70.3516 29.84 70.343 29.3726C70.3319 28.7662 70.5408 28.2778 70.9698 27.9074C71.3988 27.537 71.9096 27.3491 72.5021 27.3436C73.0076 27.339 73.4112 27.4869 73.713 27.7874C74.0146 28.0752 74.1707 28.5034 74.1811 29.0719C74.1887 29.4888 74.1182 29.919 73.9695 30.3626C73.8207 30.8062 73.602 31.2379 73.3134 31.6575C73.5232 31.6935 73.7502 31.7103 73.9942 31.7081C74.6216 31.7023 75.1424 31.5901 75.5568 31.3715C75.9709 31.1402 76.3145 30.8654 76.5875 30.547C76.8778 30.2158 77.1161 29.9041 77.3025 29.6117L77.6207 29.8552C77.1487 30.7314 76.5755 31.3179 75.9012 31.6147C75.244 31.8987 74.5843 32.0438 73.922 32.0499C73.6257 32.0526 73.3465 32.0363 73.0844 32.0008C72.6245 32.5862 72.0497 33.0843 71.36 33.495C70.6879 33.9181 69.89 34.134 68.9663 34.1425ZM69.4348 26.8981C69.9177 26.6156 70.3817 26.2576 70.827 25.8239C71.2897 25.39 71.717 24.9312 72.1091 24.4474C72.5009 23.951 72.8494 23.4677 73.1545 22.9974C73.4596 22.5271 73.6959 22.1016 73.8632 21.721C74.0305 21.3404 74.1124 21.0553 74.109 20.8658C74.1071 20.7648 74.0713 20.7146 74.0016 20.7152C73.8622 20.7165 73.5954 20.9021 73.2013 21.2722C72.8243 21.6295 72.3974 22.1135 71.9206 22.7244C71.4609 23.3225 71.0025 23.9901 70.5454 24.7272C70.0881 25.4516 69.7178 26.1752 69.4348 26.8981ZM72.5508 31.4181C72.7371 31.1258 72.8797 30.8212 72.9785 30.5044C73.077 30.175 73.1232 29.8397 73.1169 29.4986C73.1088 29.0565 73.0153 28.7099 72.8364 28.4588C72.6749 28.2076 72.4721 28.0831 72.2281 28.0853C71.9667 28.0878 71.7339 28.2226 71.5296 28.4898C71.3425 28.7442 71.2526 29.0673 71.2598 29.4589C71.266 29.8 71.3685 30.1592 71.5671 30.5364C71.7658 30.9136 72.0937 31.2075 72.5508 31.4181Z"/>
<path d="M78.0197 37.9824C77.584 37.9864 77.1989 37.9015 76.8645 37.7277C76.5304 37.5665 76.3603 37.3217 76.3543 36.9932C76.3443 36.45 76.571 35.9804 77.0344 35.5844C77.5152 35.1883 78.136 34.8225 78.8968 34.487C79.6753 34.1639 80.4973 33.8405 81.363 33.5166C81.5984 33.0469 81.8329 32.5267 82.0664 31.956C82.3172 31.3724 82.5495 30.7322 82.7633 30.0353C82.2176 30.6973 81.6268 31.2714 80.9908 31.7574C80.3719 32.2306 79.7052 32.4705 78.9907 32.4771C78.4852 32.4817 78.0038 32.3661 77.5462 32.1303C77.1059 31.8816 76.8808 31.492 76.8711 30.9614C76.8646 30.6076 76.9355 30.1963 77.0838 29.7275C77.2495 29.2584 77.4503 28.8017 77.6862 28.3573C77.922 27.9129 78.168 27.5442 78.4241 27.2512C78.6802 26.9582 78.9041 26.8109 79.0958 26.8091C79.1655 26.8085 79.2879 26.8263 79.4629 26.8626C79.6553 26.8987 79.8306 26.954 79.9888 27.0283C80.1643 27.0899 80.2527 27.1586 80.2541 27.2344C80.1003 27.4 79.9303 27.6354 79.7441 27.9403C79.558 28.2453 79.3725 28.5882 79.1878 28.9689C79.0202 29.3369 78.8787 29.6983 78.7632 30.0532C78.6476 30.408 78.5922 30.7118 78.5969 30.9644C78.601 31.1918 78.6741 31.3744 78.8161 31.5121C78.9581 31.6497 79.2033 31.717 79.5519 31.7138C79.883 31.7107 80.2469 31.5937 80.6436 31.3626C81.0575 31.1187 81.4615 30.8117 81.8556 30.4417C82.2672 30.0714 82.6434 29.6763 82.9843 29.2562C83.0341 29.1167 83.0751 28.9774 83.1074 28.8381C83.1569 28.686 83.1977 28.534 83.2297 28.3821C83.2788 28.2047 83.3971 28.0015 83.5846 27.7723C83.7893 27.5303 84.1096 27.4074 84.5453 27.4033C84.7021 27.4019 84.8855 27.4192 85.0953 27.4551C85.099 27.6573 85.0188 28.0371 84.8547 28.5945C84.7079 29.1392 84.4843 29.7794 84.184 30.515C83.9012 31.2504 83.5577 32.0054 83.1536 32.7799C83.9685 32.545 84.7634 32.1649 85.5382 31.6397C86.3127 31.1019 86.936 30.3949 87.408 29.5187L87.7513 29.7051C87.501 30.3139 87.1099 30.8482 86.5779 31.3079C86.0632 31.7549 85.4777 32.1457 84.8215 32.4802C84.165 32.8022 83.5163 33.0735 82.8754 33.2942C82.4371 34.1069 81.9543 34.8695 81.427 35.5819C80.9171 36.2942 80.3699 36.8678 79.7852 37.3028C79.2182 37.7503 78.6297 37.9768 78.0197 37.9824ZM77.8778 37.3772C78.1393 37.3748 78.5703 37.1181 79.171 36.6072C79.7894 36.1087 80.4357 35.2309 81.1099 33.9738C80.4004 34.2583 79.7431 34.536 79.138 34.8069C78.5331 35.0905 78.0506 35.3919 77.6904 35.7111C77.3302 36.0303 77.1539 36.3983 77.1616 36.8152C77.1634 36.9163 77.2179 37.0358 77.325 37.1738C77.4321 37.3118 77.6164 37.3796 77.8778 37.3772Z"/>
</mask>
<path d="M68.9663 34.1425C68.0601 34.1508 67.3764 33.9423 66.9154 33.517C66.4718 33.0914 66.2433 32.5123 66.2299 31.7796C66.2183 31.1479 66.3527 30.4012 66.6332 29.5394C66.9138 28.6776 67.2894 27.777 67.7603 26.8377C68.2309 25.8857 68.7542 24.9585 69.3303 24.0561C69.9239 23.1535 70.519 22.3393 71.1158 21.6136C71.7123 20.8753 72.2768 20.2888 72.8092 19.8543C73.3414 19.4072 73.7817 19.182 74.1303 19.1788C74.4266 19.1761 74.6381 19.3068 74.765 19.571C74.9093 19.835 74.9839 20.0996 74.9888 20.3649C74.9952 20.7187 74.8986 21.1492 74.6987 21.6564C74.4988 22.1637 74.2125 22.7097 73.8398 23.2943C73.4668 23.8663 73.0327 24.4326 72.5374 24.9931C72.0422 25.5537 71.5026 26.0704 70.9186 26.5432C70.3518 27.0033 69.7659 27.3688 69.1608 27.6398C69.0588 27.7797 68.9072 28.0717 68.7062 28.5158C68.5224 28.9471 68.3485 29.4478 68.1847 30.0179C68.038 30.5752 67.9696 31.1191 67.9793 31.6497C67.9888 32.1677 68.1012 32.59 68.3163 32.9165C68.5491 33.2555 68.927 33.4226 69.4498 33.4178C69.9553 33.4132 70.4753 33.2567 71.01 32.9486C71.545 32.653 71.9737 32.27 72.2963 31.7995C71.647 31.5654 71.1614 31.2224 70.8393 30.7705C70.517 30.306 70.3516 29.84 70.343 29.3726C70.3319 28.7662 70.5408 28.2778 70.9698 27.9074C71.3988 27.537 71.9096 27.3491 72.5021 27.3436C73.0076 27.339 73.4112 27.4869 73.713 27.7874C74.0146 28.0752 74.1707 28.5034 74.1811 29.0719C74.1887 29.4888 74.1182 29.919 73.9695 30.3626C73.8207 30.8062 73.602 31.2379 73.3134 31.6575C73.5232 31.6935 73.7502 31.7103 73.9942 31.7081C74.6216 31.7023 75.1424 31.5901 75.5568 31.3715C75.9709 31.1402 76.3145 30.8654 76.5875 30.547C76.8778 30.2158 77.1161 29.9041 77.3025 29.6117L77.6207 29.8552C77.1487 30.7314 76.5755 31.3179 75.9012 31.6147C75.244 31.8987 74.5843 32.0438 73.922 32.0499C73.6257 32.0526 73.3465 32.0363 73.0844 32.0008C72.6245 32.5862 72.0497 33.0843 71.36 33.495C70.6879 33.9181 69.89 34.134 68.9663 34.1425ZM69.4348 26.8981C69.9177 26.6156 70.3817 26.2576 70.827 25.8239C71.2897 25.39 71.717 24.9312 72.1091 24.4474C72.5009 23.951 72.8494 23.4677 73.1545 22.9974C73.4596 22.5271 73.6959 22.1016 73.8632 21.721C74.0305 21.3404 74.1124 21.0553 74.109 20.8658C74.1071 20.7648 74.0713 20.7146 74.0016 20.7152C73.8622 20.7165 73.5954 20.9021 73.2013 21.2722C72.8243 21.6295 72.3974 22.1135 71.9206 22.7244C71.4609 23.3225 71.0025 23.9901 70.5454 24.7272C70.0881 25.4516 69.7178 26.1752 69.4348 26.8981ZM72.5508 31.4181C72.7371 31.1258 72.8797 30.8212 72.9785 30.5044C73.077 30.175 73.1232 29.8397 73.1169 29.4986C73.1088 29.0565 73.0153 28.7099 72.8364 28.4588C72.6749 28.2076 72.4721 28.0831 72.2281 28.0853C71.9667 28.0878 71.7339 28.2226 71.5296 28.4898C71.3425 28.7442 71.2526 29.0673 71.2598 29.4589C71.266 29.8 71.3685 30.1592 71.5671 30.5364C71.7658 30.9136 72.0937 31.2075 72.5508 31.4181Z" fill="black"/>
<path d="M78.0197 37.9824C77.584 37.9864 77.1989 37.9015 76.8645 37.7277C76.5304 37.5665 76.3603 37.3217 76.3543 36.9932C76.3443 36.45 76.571 35.9804 77.0344 35.5844C77.5152 35.1883 78.136 34.8225 78.8968 34.487C79.6753 34.1639 80.4973 33.8405 81.363 33.5166C81.5984 33.0469 81.8329 32.5267 82.0664 31.956C82.3172 31.3724 82.5495 30.7322 82.7633 30.0353C82.2176 30.6973 81.6268 31.2714 80.9908 31.7574C80.3719 32.2306 79.7052 32.4705 78.9907 32.4771C78.4852 32.4817 78.0038 32.3661 77.5462 32.1303C77.1059 31.8816 76.8808 31.492 76.8711 30.9614C76.8646 30.6076 76.9355 30.1963 77.0838 29.7275C77.2495 29.2584 77.4503 28.8017 77.6862 28.3573C77.922 27.9129 78.168 27.5442 78.4241 27.2512C78.6802 26.9582 78.9041 26.8109 79.0958 26.8091C79.1655 26.8085 79.2879 26.8263 79.4629 26.8626C79.6553 26.8987 79.8306 26.954 79.9888 27.0283C80.1643 27.0899 80.2527 27.1586 80.2541 27.2344C80.1003 27.4 79.9303 27.6354 79.7441 27.9403C79.558 28.2453 79.3725 28.5882 79.1878 28.9689C79.0202 29.3369 78.8787 29.6983 78.7632 30.0532C78.6476 30.408 78.5922 30.7118 78.5969 30.9644C78.601 31.1918 78.6741 31.3744 78.8161 31.5121C78.9581 31.6497 79.2033 31.717 79.5519 31.7138C79.883 31.7107 80.2469 31.5937 80.6436 31.3626C81.0575 31.1187 81.4615 30.8117 81.8556 30.4417C82.2672 30.0714 82.6434 29.6763 82.9843 29.2562C83.0341 29.1167 83.0751 28.9774 83.1074 28.8381C83.1569 28.686 83.1977 28.534 83.2297 28.3821C83.2788 28.2047 83.3971 28.0015 83.5846 27.7723C83.7893 27.5303 84.1096 27.4074 84.5453 27.4033C84.7021 27.4019 84.8855 27.4192 85.0953 27.4551C85.099 27.6573 85.0188 28.0371 84.8547 28.5945C84.7079 29.1392 84.4843 29.7794 84.184 30.515C83.9012 31.2504 83.5577 32.0054 83.1536 32.7799C83.9685 32.545 84.7634 32.1649 85.5382 31.6397C86.3127 31.1019 86.936 30.3949 87.408 29.5187L87.7513 29.7051C87.501 30.3139 87.1099 30.8482 86.5779 31.3079C86.0632 31.7549 85.4777 32.1457 84.8215 32.4802C84.165 32.8022 83.5163 33.0735 82.8754 33.2942C82.4371 34.1069 81.9543 34.8695 81.427 35.5819C80.9171 36.2942 80.3699 36.8678 79.7852 37.3028C79.2182 37.7503 78.6297 37.9768 78.0197 37.9824ZM77.8778 37.3772C78.1393 37.3748 78.5703 37.1181 79.171 36.6072C79.7894 36.1087 80.4357 35.2309 81.1099 33.9738C80.4004 34.2583 79.7431 34.536 79.138 34.8069C78.5331 35.0905 78.0506 35.3919 77.6904 35.7111C77.3302 36.0303 77.1539 36.3983 77.1616 36.8152C77.1634 36.9163 77.2179 37.0358 77.325 37.1738C77.4321 37.3118 77.6164 37.3796 77.8778 37.3772Z" fill="black"/>
<path d="M68.9663 34.1425C68.0601 34.1508 67.3764 33.9423 66.9154 33.517C66.4718 33.0914 66.2433 32.5123 66.2299 31.7796C66.2183 31.1479 66.3527 30.4012 66.6332 29.5394C66.9138 28.6776 67.2894 27.777 67.7603 26.8377C68.2309 25.8857 68.7542 24.9585 69.3303 24.0561C69.9239 23.1535 70.519 22.3393 71.1158 21.6136C71.7123 20.8753 72.2768 20.2888 72.8092 19.8543C73.3414 19.4072 73.7817 19.182 74.1303 19.1788C74.4266 19.1761 74.6381 19.3068 74.765 19.571C74.9093 19.835 74.9839 20.0996 74.9888 20.3649C74.9952 20.7187 74.8986 21.1492 74.6987 21.6564C74.4988 22.1637 74.2125 22.7097 73.8398 23.2943C73.4668 23.8663 73.0327 24.4326 72.5374 24.9931C72.0422 25.5537 71.5026 26.0704 70.9186 26.5432C70.3518 27.0033 69.7659 27.3688 69.1608 27.6398C69.0588 27.7797 68.9072 28.0717 68.7062 28.5158C68.5224 28.9471 68.3485 29.4478 68.1847 30.0179C68.038 30.5752 67.9696 31.1191 67.9793 31.6497C67.9888 32.1677 68.1012 32.59 68.3163 32.9165C68.5491 33.2555 68.927 33.4226 69.4498 33.4178C69.9553 33.4132 70.4753 33.2567 71.01 32.9486C71.545 32.653 71.9737 32.27 72.2963 31.7995C71.647 31.5654 71.1614 31.2224 70.8393 30.7705C70.517 30.306 70.3516 29.84 70.343 29.3726C70.3319 28.7662 70.5408 28.2778 70.9698 27.9074C71.3988 27.537 71.9096 27.3491 72.5021 27.3436C73.0076 27.339 73.4112 27.4869 73.713 27.7874C74.0146 28.0752 74.1707 28.5034 74.1811 29.0719C74.1887 29.4888 74.1182 29.919 73.9695 30.3626C73.8207 30.8062 73.602 31.2379 73.3134 31.6575C73.5232 31.6935 73.7502 31.7103 73.9942 31.7081C74.6216 31.7023 75.1424 31.5901 75.5568 31.3715C75.9709 31.1402 76.3145 30.8654 76.5875 30.547C76.8778 30.2158 77.1161 29.9041 77.3025 29.6117L77.6207 29.8552C77.1487 30.7314 76.5755 31.3179 75.9012 31.6147C75.244 31.8987 74.5843 32.0438 73.922 32.0499C73.6257 32.0526 73.3465 32.0363 73.0844 32.0008C72.6245 32.5862 72.0497 33.0843 71.36 33.495C70.6879 33.9181 69.89 34.134 68.9663 34.1425ZM69.4348 26.8981C69.9177 26.6156 70.3817 26.2576 70.827 25.8239C71.2897 25.39 71.717 24.9312 72.1091 24.4474C72.5009 23.951 72.8494 23.4677 73.1545 22.9974C73.4596 22.5271 73.6959 22.1016 73.8632 21.721C74.0305 21.3404 74.1124 21.0553 74.109 20.8658C74.1071 20.7648 74.0713 20.7146 74.0016 20.7152C73.8622 20.7165 73.5954 20.9021 73.2013 21.2722C72.8243 21.6295 72.3974 22.1135 71.9206 22.7244C71.4609 23.3225 71.0025 23.9901 70.5454 24.7272C70.0881 25.4516 69.7178 26.1752 69.4348 26.8981ZM72.5508 31.4181C72.7371 31.1258 72.8797 30.8212 72.9785 30.5044C73.077 30.175 73.1232 29.8397 73.1169 29.4986C73.1088 29.0565 73.0153 28.7099 72.8364 28.4588C72.6749 28.2076 72.4721 28.0831 72.2281 28.0853C71.9667 28.0878 71.7339 28.2226 71.5296 28.4898C71.3425 28.7442 71.2526 29.0673 71.2598 29.4589C71.266 29.8 71.3685 30.1592 71.5671 30.5364C71.7658 30.9136 72.0937 31.2075 72.5508 31.4181Z" stroke="black" stroke-width="0.5" mask="url(#path-7-outside-1)"/>
<path d="M78.0197 37.9824C77.584 37.9864 77.1989 37.9015 76.8645 37.7277C76.5304 37.5665 76.3603 37.3217 76.3543 36.9932C76.3443 36.45 76.571 35.9804 77.0344 35.5844C77.5152 35.1883 78.136 34.8225 78.8968 34.487C79.6753 34.1639 80.4973 33.8405 81.363 33.5166C81.5984 33.0469 81.8329 32.5267 82.0664 31.956C82.3172 31.3724 82.5495 30.7322 82.7633 30.0353C82.2176 30.6973 81.6268 31.2714 80.9908 31.7574C80.3719 32.2306 79.7052 32.4705 78.9907 32.4771C78.4852 32.4817 78.0038 32.3661 77.5462 32.1303C77.1059 31.8816 76.8808 31.492 76.8711 30.9614C76.8646 30.6076 76.9355 30.1963 77.0838 29.7275C77.2495 29.2584 77.4503 28.8017 77.6862 28.3573C77.922 27.9129 78.168 27.5442 78.4241 27.2512C78.6802 26.9582 78.9041 26.8109 79.0958 26.8091C79.1655 26.8085 79.2879 26.8263 79.4629 26.8626C79.6553 26.8987 79.8306 26.954 79.9888 27.0283C80.1643 27.0899 80.2527 27.1586 80.2541 27.2344C80.1003 27.4 79.9303 27.6354 79.7441 27.9403C79.558 28.2453 79.3725 28.5882 79.1878 28.9689C79.0202 29.3369 78.8787 29.6983 78.7632 30.0532C78.6476 30.408 78.5922 30.7118 78.5969 30.9644C78.601 31.1918 78.6741 31.3744 78.8161 31.5121C78.9581 31.6497 79.2033 31.717 79.5519 31.7138C79.883 31.7107 80.2469 31.5937 80.6436 31.3626C81.0575 31.1187 81.4615 30.8117 81.8556 30.4417C82.2672 30.0714 82.6434 29.6763 82.9843 29.2562C83.0341 29.1167 83.0751 28.9774 83.1074 28.8381C83.1569 28.686 83.1977 28.534 83.2297 28.3821C83.2788 28.2047 83.3971 28.0015 83.5846 27.7723C83.7893 27.5303 84.1096 27.4074 84.5453 27.4033C84.7021 27.4019 84.8855 27.4192 85.0953 27.4551C85.099 27.6573 85.0188 28.0371 84.8547 28.5945C84.7079 29.1392 84.4843 29.7794 84.184 30.515C83.9012 31.2504 83.5577 32.0054 83.1536 32.7799C83.9685 32.545 84.7634 32.1649 85.5382 31.6397C86.3127 31.1019 86.936 30.3949 87.408 29.5187L87.7513 29.7051C87.501 30.3139 87.1099 30.8482 86.5779 31.3079C86.0632 31.7549 85.4777 32.1457 84.8215 32.4802C84.165 32.8022 83.5163 33.0735 82.8754 33.2942C82.4371 34.1069 81.9543 34.8695 81.427 35.5819C80.9171 36.2942 80.3699 36.8678 79.7852 37.3028C79.2182 37.7503 78.6297 37.9768 78.0197 37.9824ZM77.8778 37.3772C78.1393 37.3748 78.5703 37.1181 79.171 36.6072C79.7894 36.1087 80.4357 35.2309 81.1099 33.9738C80.4004 34.2583 79.7431 34.536 79.138 34.8069C78.5331 35.0905 78.0506 35.3919 77.6904 35.7111C77.3302 36.0303 77.1539 36.3983 77.1616 36.8152C77.1634 36.9163 77.2179 37.0358 77.325 37.1738C77.4321 37.3118 77.6164 37.3796 77.8778 37.3772Z" stroke="black" stroke-width="0.5" mask="url(#path-7-outside-1)"/>
<mask id="path-8-outside-2" maskUnits="userSpaceOnUse" x="87" y="4" width="95" height="27" fill="black">
<rect fill="white" x="87" y="4" width="95" height="27"/>
<path d="M94.1949 7.78164C96.4921 7.78164 98.276 8.25684 99.5468 9.20723C100.842 10.1344 101.49 11.5021 101.49 13.3102C101.49 14.6546 101.086 15.7093 100.28 16.4743C99.4979 17.216 98.5082 17.7376 97.3107 18.0389C97.995 18.1548 98.6304 18.3635 99.2169 18.6648C99.8034 18.943 100.317 19.3139 100.756 19.7775C101.196 20.2411 101.538 20.7974 101.783 21.4465C102.052 22.0723 102.186 22.7793 102.186 23.5675C102.186 24.4715 101.978 25.306 101.563 26.0709C101.172 26.8127 100.61 27.4502 99.8767 27.9833C99.1436 28.5165 98.2638 28.9337 97.2374 29.235C96.211 29.5364 95.0869 29.6871 93.865 29.6871H88V7.78164H94.1949ZM90.6393 17.1697H93.4252C94.1094 17.1697 94.7692 17.1117 95.4046 16.9958C96.0644 16.8799 96.6387 16.6829 97.1275 16.4047C97.6406 16.1266 98.0439 15.7557 98.3371 15.2921C98.6304 14.8053 98.777 14.2026 98.777 13.484C98.777 12.1859 98.3005 11.2471 97.3474 10.6676C96.4188 10.0881 95.1969 9.79833 93.6818 9.79833H90.6393V17.1697ZM90.6393 27.6704H93.4985C94.3049 27.6704 95.0625 27.6008 95.7712 27.4617C96.4799 27.2995 97.103 27.0445 97.6406 26.6968C98.1783 26.3491 98.6059 25.8971 98.9236 25.3407C99.2413 24.7612 99.4002 24.0658 99.4002 23.2545C99.4002 22.4664 99.2291 21.8173 98.887 21.3074C98.5448 20.7742 98.0805 20.357 97.494 20.0556C96.932 19.7311 96.2721 19.4993 95.5146 19.3602C94.7814 19.2211 94.0239 19.1516 93.2419 19.1516H90.6393V27.6704Z"/>
<path d="M106.167 14.8053C107.316 14.2258 108.366 13.8085 109.319 13.5535C110.297 13.2754 111.372 13.1363 112.545 13.1363C113.425 13.1363 114.231 13.2406 114.965 13.4492C115.722 13.6347 116.37 13.9592 116.907 14.4228C117.469 14.8864 117.897 15.5007 118.19 16.2656C118.508 17.0074 118.667 17.9346 118.667 19.0473V29.6871H116.687L116.284 27.7051H116.211C115.478 28.5165 114.635 29.1076 113.682 29.4784C112.753 29.8261 111.727 30 110.602 30C109.796 30 109.038 29.8957 108.33 29.6871C107.645 29.4553 107.047 29.1307 106.534 28.7135C106.045 28.2962 105.654 27.7979 105.361 27.2184C105.092 26.6389 104.957 25.9898 104.957 25.2712C104.957 24.4135 105.141 23.6602 105.507 23.0111C105.874 22.3621 106.387 21.8173 107.047 21.3769C107.731 20.9365 108.537 20.612 109.466 20.4033C110.419 20.1715 111.47 20.0556 112.619 20.0556H116.101V18.8387C116.101 17.4478 115.759 16.4859 115.075 15.9527C114.39 15.3964 113.486 15.1182 112.362 15.1182C111.678 15.1182 110.896 15.2225 110.016 15.4312C109.161 15.6166 108.208 15.9875 107.157 16.5438L106.167 14.8053ZM116.101 21.8289L113.242 21.8637C111.213 21.9101 109.772 22.2462 108.916 22.872C108.061 23.4979 107.633 24.2629 107.633 25.1669C107.633 26.2564 107.988 27.0213 108.696 27.4617C109.405 27.9022 110.248 28.1224 111.226 28.1224C112.081 28.1224 112.948 27.9369 113.828 27.5661C114.708 27.172 115.466 26.5345 116.101 25.6537V21.8289Z"/>
<path d="M122.282 29.6871V13.3449H124.115L124.592 16.6134C125.007 15.5702 125.704 14.7357 126.681 14.1099C127.659 13.4608 128.771 13.1363 130.017 13.1363C130.628 13.1363 131.153 13.1827 131.593 13.2754C132.033 13.3681 132.387 13.4724 132.656 13.5883L132.18 15.7441C131.886 15.605 131.556 15.4891 131.19 15.3964C130.823 15.3037 130.396 15.2573 129.907 15.2573C129.198 15.2573 128.538 15.3848 127.927 15.6398C127.317 15.8716 126.779 16.2193 126.315 16.6829C125.85 17.1465 125.484 17.7376 125.215 18.4562C124.946 19.1748 124.812 19.9977 124.812 20.9249V29.6871H122.282Z"/>
<path d="M150.262 21.516C150.262 22.8141 150.054 23.9847 149.638 25.0278C149.223 26.0709 148.661 26.9634 147.952 27.7051C147.268 28.4469 146.449 29.0148 145.496 29.4089C144.568 29.803 143.578 30 142.527 30C141.403 30 140.425 29.8493 139.595 29.548C138.788 29.2466 138.018 28.783 137.285 28.1572H137.212L136.919 29.6871H135.012V5H137.578V15.3964C138.214 14.7242 138.996 14.1794 139.924 13.7622C140.853 13.3449 141.867 13.1363 142.967 13.1363C144.018 13.1363 144.995 13.3217 145.899 13.6926C146.804 14.0403 147.573 14.5735 148.209 15.2921C148.844 16.0107 149.345 16.8915 149.712 17.9346C150.078 18.9777 150.262 20.1715 150.262 21.516ZM147.586 21.5508C147.586 19.5109 147.121 17.9346 146.193 16.822C145.264 15.6861 144.018 15.1182 142.454 15.1182C141.476 15.1182 140.572 15.35 139.741 15.8136C138.91 16.2772 138.189 16.8567 137.578 17.5522V26.2448C138.067 26.7779 138.69 27.2184 139.448 27.5661C140.205 27.9138 141.024 28.0876 141.904 28.0876C142.637 28.0876 143.346 27.9485 144.03 27.6704C144.714 27.3922 145.313 26.9866 145.826 26.4534C146.364 25.8971 146.791 25.2133 147.109 24.4019C147.427 23.5906 147.586 22.6402 147.586 21.5508Z"/>
<path d="M153.387 29.6871V13.3449H155.22L155.697 16.6134C156.112 15.5702 156.809 14.7357 157.786 14.1099C158.764 13.4608 159.876 13.1363 161.122 13.1363C161.733 13.1363 162.258 13.1827 162.698 13.2754C163.138 13.3681 163.492 13.4724 163.761 13.5883L163.285 15.7441C162.991 15.605 162.661 15.4891 162.295 15.3964C161.928 15.3037 161.501 15.2573 161.012 15.2573C160.303 15.2573 159.643 15.3848 159.032 15.6398C158.422 15.8716 157.884 16.2193 157.42 16.6829C156.955 17.1465 156.589 17.7376 156.32 18.4562C156.051 19.1748 155.917 19.9977 155.917 20.9249V29.6871H153.387Z"/>
<path d="M181 21.3421C181 22.7098 180.792 23.9383 180.377 25.0278C179.961 26.0941 179.387 26.9981 178.654 27.7399C177.921 28.4817 177.053 29.0496 176.051 29.4437C175.074 29.8146 174.023 30 172.899 30C171.75 30 170.687 29.8261 169.71 29.4784C168.732 29.1076 167.889 28.5744 167.181 27.879C166.472 27.1604 165.91 26.2911 165.494 25.2712C165.079 24.2281 164.871 23.0343 164.871 21.6898C164.871 20.3222 165.079 19.1052 165.494 18.0389C165.934 16.9726 166.521 16.0802 167.254 15.3616C167.987 14.6198 168.842 14.0635 169.82 13.6926C170.822 13.3217 171.897 13.1363 173.046 13.1363C174.17 13.1363 175.22 13.3102 176.198 13.6579C177.176 14.0056 178.019 14.5271 178.727 15.2225C179.436 15.9179 179.986 16.7756 180.377 17.7955C180.792 18.8155 181 19.9977 181 21.3421ZM178.324 21.516C178.324 20.3802 178.165 19.4066 177.848 18.5953C177.554 17.7608 177.151 17.0885 176.638 16.5786C176.149 16.0454 175.575 15.663 174.915 15.4312C174.28 15.1762 173.62 15.0487 172.936 15.0487C172.251 15.0487 171.579 15.1646 170.919 15.3964C170.284 15.6282 169.71 15.9991 169.197 16.509C168.708 17.019 168.305 17.6912 167.987 18.5257C167.694 19.337 167.547 20.3338 167.547 21.516C167.547 22.6982 167.694 23.7065 167.987 24.541C168.305 25.3755 168.72 26.0593 169.233 26.5925C169.746 27.1025 170.333 27.4849 170.993 27.7399C171.653 27.9717 172.325 28.0876 173.009 28.0876C173.693 28.0876 174.353 27.9833 174.988 27.7747C175.624 27.5429 176.186 27.172 176.675 26.662C177.188 26.1289 177.591 25.4451 177.884 24.6106C178.177 23.7761 178.324 22.7446 178.324 21.516Z"/>
</mask>
<path d="M94.1949 7.78164C96.4921 7.78164 98.276 8.25684 99.5468 9.20723C100.842 10.1344 101.49 11.5021 101.49 13.3102C101.49 14.6546 101.086 15.7093 100.28 16.4743C99.4979 17.216 98.5082 17.7376 97.3107 18.0389C97.995 18.1548 98.6304 18.3635 99.2169 18.6648C99.8034 18.943 100.317 19.3139 100.756 19.7775C101.196 20.2411 101.538 20.7974 101.783 21.4465C102.052 22.0723 102.186 22.7793 102.186 23.5675C102.186 24.4715 101.978 25.306 101.563 26.0709C101.172 26.8127 100.61 27.4502 99.8767 27.9833C99.1436 28.5165 98.2638 28.9337 97.2374 29.235C96.211 29.5364 95.0869 29.6871 93.865 29.6871H88V7.78164H94.1949ZM90.6393 17.1697H93.4252C94.1094 17.1697 94.7692 17.1117 95.4046 16.9958C96.0644 16.8799 96.6387 16.6829 97.1275 16.4047C97.6406 16.1266 98.0439 15.7557 98.3371 15.2921C98.6304 14.8053 98.777 14.2026 98.777 13.484C98.777 12.1859 98.3005 11.2471 97.3474 10.6676C96.4188 10.0881 95.1969 9.79833 93.6818 9.79833H90.6393V17.1697ZM90.6393 27.6704H93.4985C94.3049 27.6704 95.0625 27.6008 95.7712 27.4617C96.4799 27.2995 97.103 27.0445 97.6406 26.6968C98.1783 26.3491 98.6059 25.8971 98.9236 25.3407C99.2413 24.7612 99.4002 24.0658 99.4002 23.2545C99.4002 22.4664 99.2291 21.8173 98.887 21.3074C98.5448 20.7742 98.0805 20.357 97.494 20.0556C96.932 19.7311 96.2721 19.4993 95.5146 19.3602C94.7814 19.2211 94.0239 19.1516 93.2419 19.1516H90.6393V27.6704Z" fill="black"/>
<path d="M106.167 14.8053C107.316 14.2258 108.366 13.8085 109.319 13.5535C110.297 13.2754 111.372 13.1363 112.545 13.1363C113.425 13.1363 114.231 13.2406 114.965 13.4492C115.722 13.6347 116.37 13.9592 116.907 14.4228C117.469 14.8864 117.897 15.5007 118.19 16.2656C118.508 17.0074 118.667 17.9346 118.667 19.0473V29.6871H116.687L116.284 27.7051H116.211C115.478 28.5165 114.635 29.1076 113.682 29.4784C112.753 29.8261 111.727 30 110.602 30C109.796 30 109.038 29.8957 108.33 29.6871C107.645 29.4553 107.047 29.1307 106.534 28.7135C106.045 28.2962 105.654 27.7979 105.361 27.2184C105.092 26.6389 104.957 25.9898 104.957 25.2712C104.957 24.4135 105.141 23.6602 105.507 23.0111C105.874 22.3621 106.387 21.8173 107.047 21.3769C107.731 20.9365 108.537 20.612 109.466 20.4033C110.419 20.1715 111.47 20.0556 112.619 20.0556H116.101V18.8387C116.101 17.4478 115.759 16.4859 115.075 15.9527C114.39 15.3964 113.486 15.1182 112.362 15.1182C111.678 15.1182 110.896 15.2225 110.016 15.4312C109.161 15.6166 108.208 15.9875 107.157 16.5438L106.167 14.8053ZM116.101 21.8289L113.242 21.8637C111.213 21.9101 109.772 22.2462 108.916 22.872C108.061 23.4979 107.633 24.2629 107.633 25.1669C107.633 26.2564 107.988 27.0213 108.696 27.4617C109.405 27.9022 110.248 28.1224 111.226 28.1224C112.081 28.1224 112.948 27.9369 113.828 27.5661C114.708 27.172 115.466 26.5345 116.101 25.6537V21.8289Z" fill="black"/>
<path d="M122.282 29.6871V13.3449H124.115L124.592 16.6134C125.007 15.5702 125.704 14.7357 126.681 14.1099C127.659 13.4608 128.771 13.1363 130.017 13.1363C130.628 13.1363 131.153 13.1827 131.593 13.2754C132.033 13.3681 132.387 13.4724 132.656 13.5883L132.18 15.7441C131.886 15.605 131.556 15.4891 131.19 15.3964C130.823 15.3037 130.396 15.2573 129.907 15.2573C129.198 15.2573 128.538 15.3848 127.927 15.6398C127.317 15.8716 126.779 16.2193 126.315 16.6829C125.85 17.1465 125.484 17.7376 125.215 18.4562C124.946 19.1748 124.812 19.9977 124.812 20.9249V29.6871H122.282Z" fill="black"/>
<path d="M150.262 21.516C150.262 22.8141 150.054 23.9847 149.638 25.0278C149.223 26.0709 148.661 26.9634 147.952 27.7051C147.268 28.4469 146.449 29.0148 145.496 29.4089C144.568 29.803 143.578 30 142.527 30C141.403 30 140.425 29.8493 139.595 29.548C138.788 29.2466 138.018 28.783 137.285 28.1572H137.212L136.919 29.6871H135.012V5H137.578V15.3964C138.214 14.7242 138.996 14.1794 139.924 13.7622C140.853 13.3449 141.867 13.1363 142.967 13.1363C144.018 13.1363 144.995 13.3217 145.899 13.6926C146.804 14.0403 147.573 14.5735 148.209 15.2921C148.844 16.0107 149.345 16.8915 149.712 17.9346C150.078 18.9777 150.262 20.1715 150.262 21.516ZM147.586 21.5508C147.586 19.5109 147.121 17.9346 146.193 16.822C145.264 15.6861 144.018 15.1182 142.454 15.1182C141.476 15.1182 140.572 15.35 139.741 15.8136C138.91 16.2772 138.189 16.8567 137.578 17.5522V26.2448C138.067 26.7779 138.69 27.2184 139.448 27.5661C140.205 27.9138 141.024 28.0876 141.904 28.0876C142.637 28.0876 143.346 27.9485 144.03 27.6704C144.714 27.3922 145.313 26.9866 145.826 26.4534C146.364 25.8971 146.791 25.2133 147.109 24.4019C147.427 23.5906 147.586 22.6402 147.586 21.5508Z" fill="black"/>
<path d="M153.387 29.6871V13.3449H155.22L155.697 16.6134C156.112 15.5702 156.809 14.7357 157.786 14.1099C158.764 13.4608 159.876 13.1363 161.122 13.1363C161.733 13.1363 162.258 13.1827 162.698 13.2754C163.138 13.3681 163.492 13.4724 163.761 13.5883L163.285 15.7441C162.991 15.605 162.661 15.4891 162.295 15.3964C161.928 15.3037 161.501 15.2573 161.012 15.2573C160.303 15.2573 159.643 15.3848 159.032 15.6398C158.422 15.8716 157.884 16.2193 157.42 16.6829C156.955 17.1465 156.589 17.7376 156.32 18.4562C156.051 19.1748 155.917 19.9977 155.917 20.9249V29.6871H153.387Z" fill="black"/>
<path d="M181 21.3421C181 22.7098 180.792 23.9383 180.377 25.0278C179.961 26.0941 179.387 26.9981 178.654 27.7399C177.921 28.4817 177.053 29.0496 176.051 29.4437C175.074 29.8146 174.023 30 172.899 30C171.75 30 170.687 29.8261 169.71 29.4784C168.732 29.1076 167.889 28.5744 167.181 27.879C166.472 27.1604 165.91 26.2911 165.494 25.2712C165.079 24.2281 164.871 23.0343 164.871 21.6898C164.871 20.3222 165.079 19.1052 165.494 18.0389C165.934 16.9726 166.521 16.0802 167.254 15.3616C167.987 14.6198 168.842 14.0635 169.82 13.6926C170.822 13.3217 171.897 13.1363 173.046 13.1363C174.17 13.1363 175.22 13.3102 176.198 13.6579C177.176 14.0056 178.019 14.5271 178.727 15.2225C179.436 15.9179 179.986 16.7756 180.377 17.7955C180.792 18.8155 181 19.9977 181 21.3421ZM178.324 21.516C178.324 20.3802 178.165 19.4066 177.848 18.5953C177.554 17.7608 177.151 17.0885 176.638 16.5786C176.149 16.0454 175.575 15.663 174.915 15.4312C174.28 15.1762 173.62 15.0487 172.936 15.0487C172.251 15.0487 171.579 15.1646 170.919 15.3964C170.284 15.6282 169.71 15.9991 169.197 16.509C168.708 17.019 168.305 17.6912 167.987 18.5257C167.694 19.337 167.547 20.3338 167.547 21.516C167.547 22.6982 167.694 23.7065 167.987 24.541C168.305 25.3755 168.72 26.0593 169.233 26.5925C169.746 27.1025 170.333 27.4849 170.993 27.7399C171.653 27.9717 172.325 28.0876 173.009 28.0876C173.693 28.0876 174.353 27.9833 174.988 27.7747C175.624 27.5429 176.186 27.172 176.675 26.662C177.188 26.1289 177.591 25.4451 177.884 24.6106C178.177 23.7761 178.324 22.7446 178.324 21.516Z" fill="black"/>
<path d="M94.1949 7.78164C96.4921 7.78164 98.276 8.25684 99.5468 9.20723C100.842 10.1344 101.49 11.5021 101.49 13.3102C101.49 14.6546 101.086 15.7093 100.28 16.4743C99.4979 17.216 98.5082 17.7376 97.3107 18.0389C97.995 18.1548 98.6304 18.3635 99.2169 18.6648C99.8034 18.943 100.317 19.3139 100.756 19.7775C101.196 20.2411 101.538 20.7974 101.783 21.4465C102.052 22.0723 102.186 22.7793 102.186 23.5675C102.186 24.4715 101.978 25.306 101.563 26.0709C101.172 26.8127 100.61 27.4502 99.8767 27.9833C99.1436 28.5165 98.2638 28.9337 97.2374 29.235C96.211 29.5364 95.0869 29.6871 93.865 29.6871H88V7.78164H94.1949ZM90.6393 17.1697H93.4252C94.1094 17.1697 94.7692 17.1117 95.4046 16.9958C96.0644 16.8799 96.6387 16.6829 97.1275 16.4047C97.6406 16.1266 98.0439 15.7557 98.3371 15.2921C98.6304 14.8053 98.777 14.2026 98.777 13.484C98.777 12.1859 98.3005 11.2471 97.3474 10.6676C96.4188 10.0881 95.1969 9.79833 93.6818 9.79833H90.6393V17.1697ZM90.6393 27.6704H93.4985C94.3049 27.6704 95.0625 27.6008 95.7712 27.4617C96.4799 27.2995 97.103 27.0445 97.6406 26.6968C98.1783 26.3491 98.6059 25.8971 98.9236 25.3407C99.2413 24.7612 99.4002 24.0658 99.4002 23.2545C99.4002 22.4664 99.2291 21.8173 98.887 21.3074C98.5448 20.7742 98.0805 20.357 97.494 20.0556C96.932 19.7311 96.2721 19.4993 95.5146 19.3602C94.7814 19.2211 94.0239 19.1516 93.2419 19.1516H90.6393V27.6704Z" stroke="black" mask="url(#path-8-outside-2)"/>
<path d="M106.167 14.8053C107.316 14.2258 108.366 13.8085 109.319 13.5535C110.297 13.2754 111.372 13.1363 112.545 13.1363C113.425 13.1363 114.231 13.2406 114.965 13.4492C115.722 13.6347 116.37 13.9592 116.907 14.4228C117.469 14.8864 117.897 15.5007 118.19 16.2656C118.508 17.0074 118.667 17.9346 118.667 19.0473V29.6871H116.687L116.284 27.7051H116.211C115.478 28.5165 114.635 29.1076 113.682 29.4784C112.753 29.8261 111.727 30 110.602 30C109.796 30 109.038 29.8957 108.33 29.6871C107.645 29.4553 107.047 29.1307 106.534 28.7135C106.045 28.2962 105.654 27.7979 105.361 27.2184C105.092 26.6389 104.957 25.9898 104.957 25.2712C104.957 24.4135 105.141 23.6602 105.507 23.0111C105.874 22.3621 106.387 21.8173 107.047 21.3769C107.731 20.9365 108.537 20.612 109.466 20.4033C110.419 20.1715 111.47 20.0556 112.619 20.0556H116.101V18.8387C116.101 17.4478 115.759 16.4859 115.075 15.9527C114.39 15.3964 113.486 15.1182 112.362 15.1182C111.678 15.1182 110.896 15.2225 110.016 15.4312C109.161 15.6166 108.208 15.9875 107.157 16.5438L106.167 14.8053ZM116.101 21.8289L113.242 21.8637C111.213 21.9101 109.772 22.2462 108.916 22.872C108.061 23.4979 107.633 24.2629 107.633 25.1669C107.633 26.2564 107.988 27.0213 108.696 27.4617C109.405 27.9022 110.248 28.1224 111.226 28.1224C112.081 28.1224 112.948 27.9369 113.828 27.5661C114.708 27.172 115.466 26.5345 116.101 25.6537V21.8289Z" stroke="black" mask="url(#path-8-outside-2)"/>
<path d="M122.282 29.6871V13.3449H124.115L124.592 16.6134C125.007 15.5702 125.704 14.7357 126.681 14.1099C127.659 13.4608 128.771 13.1363 130.017 13.1363C130.628 13.1363 131.153 13.1827 131.593 13.2754C132.033 13.3681 132.387 13.4724 132.656 13.5883L132.18 15.7441C131.886 15.605 131.556 15.4891 131.19 15.3964C130.823 15.3037 130.396 15.2573 129.907 15.2573C129.198 15.2573 128.538 15.3848 127.927 15.6398C127.317 15.8716 126.779 16.2193 126.315 16.6829C125.85 17.1465 125.484 17.7376 125.215 18.4562C124.946 19.1748 124.812 19.9977 124.812 20.9249V29.6871H122.282Z" stroke="black" mask="url(#path-8-outside-2)"/>
<path d="M150.262 21.516C150.262 22.8141 150.054 23.9847 149.638 25.0278C149.223 26.0709 148.661 26.9634 147.952 27.7051C147.268 28.4469 146.449 29.0148 145.496 29.4089C144.568 29.803 143.578 30 142.527 30C141.403 30 140.425 29.8493 139.595 29.548C138.788 29.2466 138.018 28.783 137.285 28.1572H137.212L136.919 29.6871H135.012V5H137.578V15.3964C138.214 14.7242 138.996 14.1794 139.924 13.7622C140.853 13.3449 141.867 13.1363 142.967 13.1363C144.018 13.1363 144.995 13.3217 145.899 13.6926C146.804 14.0403 147.573 14.5735 148.209 15.2921C148.844 16.0107 149.345 16.8915 149.712 17.9346C150.078 18.9777 150.262 20.1715 150.262 21.516ZM147.586 21.5508C147.586 19.5109 147.121 17.9346 146.193 16.822C145.264 15.6861 144.018 15.1182 142.454 15.1182C141.476 15.1182 140.572 15.35 139.741 15.8136C138.91 16.2772 138.189 16.8567 137.578 17.5522V26.2448C138.067 26.7779 138.69 27.2184 139.448 27.5661C140.205 27.9138 141.024 28.0876 141.904 28.0876C142.637 28.0876 143.346 27.9485 144.03 27.6704C144.714 27.3922 145.313 26.9866 145.826 26.4534C146.364 25.8971 146.791 25.2133 147.109 24.4019C147.427 23.5906 147.586 22.6402 147.586 21.5508Z" stroke="black" mask="url(#path-8-outside-2)"/>
<path d="M153.387 29.6871V13.3449H155.22L155.697 16.6134C156.112 15.5702 156.809 14.7357 157.786 14.1099C158.764 13.4608 159.876 13.1363 161.122 13.1363C161.733 13.1363 162.258 13.1827 162.698 13.2754C163.138 13.3681 163.492 13.4724 163.761 13.5883L163.285 15.7441C162.991 15.605 162.661 15.4891 162.295 15.3964C161.928 15.3037 161.501 15.2573 161.012 15.2573C160.303 15.2573 159.643 15.3848 159.032 15.6398C158.422 15.8716 157.884 16.2193 157.42 16.6829C156.955 17.1465 156.589 17.7376 156.32 18.4562C156.051 19.1748 155.917 19.9977 155.917 20.9249V29.6871H153.387Z" stroke="black" mask="url(#path-8-outside-2)"/>
<path d="M181 21.3421C181 22.7098 180.792 23.9383 180.377 25.0278C179.961 26.0941 179.387 26.9981 178.654 27.7399C177.921 28.4817 177.053 29.0496 176.051 29.4437C175.074 29.8146 174.023 30 172.899 30C171.75 30 170.687 29.8261 169.71 29.4784C168.732 29.1076 167.889 28.5744 167.181 27.879C166.472 27.1604 165.91 26.2911 165.494 25.2712C165.079 24.2281 164.871 23.0343 164.871 21.6898C164.871 20.3222 165.079 19.1052 165.494 18.0389C165.934 16.9726 166.521 16.0802 167.254 15.3616C167.987 14.6198 168.842 14.0635 169.82 13.6926C170.822 13.3217 171.897 13.1363 173.046 13.1363C174.17 13.1363 175.22 13.3102 176.198 13.6579C177.176 14.0056 178.019 14.5271 178.727 15.2225C179.436 15.9179 179.986 16.7756 180.377 17.7955C180.792 18.8155 181 19.9977 181 21.3421ZM178.324 21.516C178.324 20.3802 178.165 19.4066 177.848 18.5953C177.554 17.7608 177.151 17.0885 176.638 16.5786C176.149 16.0454 175.575 15.663 174.915 15.4312C174.28 15.1762 173.62 15.0487 172.936 15.0487C172.251 15.0487 171.579 15.1646 170.919 15.3964C170.284 15.6282 169.71 15.9991 169.197 16.509C168.708 17.019 168.305 17.6912 167.987 18.5257C167.694 19.337 167.547 20.3338 167.547 21.516C167.547 22.6982 167.694 23.7065 167.987 24.541C168.305 25.3755 168.72 26.0593 169.233 26.5925C169.746 27.1025 170.333 27.4849 170.993 27.7399C171.653 27.9717 172.325 28.0876 173.009 28.0876C173.693 28.0876 174.353 27.9833 174.988 27.7747C175.624 27.5429 176.186 27.172 176.675 26.662C177.188 26.1289 177.591 25.4451 177.884 24.6106C178.177 23.7761 178.324 22.7446 178.324 21.516Z" stroke="black" mask="url(#path-8-outside-2)"/>
</svg>