<svg width="107" height="107" viewBox="0 0 107 107" fill="none" xmlns="http://www.w3.org/2000/svg">
<path d="M43.9428 18.8093H44.4428C45.2635 18.8093 46.0855 18.8078 46.9077 18.8064C48.2239 18.804 49.5406 18.8016 50.8532 18.8053L50.857 18.8053C54.8777 18.8472 58.8616 19.577 62.6361 20.963C68.2035 22.9184 73.2376 26.1465 77.3373 30.3905L77.3377 30.3908C81.9602 35.1844 85.0245 40.8282 86.206 47.4252L86.206 47.4254C87.7663 56.1505 85.8797 64.1591 80.8331 71.3857C76.0637 78.2148 69.5517 82.6794 61.6221 85.0545M43.9428 18.8093L61.4773 84.576M43.9428 18.8093V18.8937M43.9428 18.8093V18.8937M61.6221 85.0545C61.6216 85.0547 61.6212 85.0548 61.6207 85.0549L61.4773 84.576M61.6221 85.0545C61.6221 85.0545 61.6222 85.0545 61.6222 85.0545L61.4773 84.576M61.6221 85.0545C58.0249 86.1439 54.2857 86.6925 50.5272 86.6822L50.5263 86.6822C49.3461 86.677 48.166 86.702 46.9784 86.7271C46.8008 86.7309 46.623 86.7346 46.445 86.7383M61.4773 84.576C57.9275 85.651 54.2376 86.1923 50.5285 86.1822C49.3414 86.177 48.1543 86.2021 46.9672 86.2272C46.789 86.231 46.6108 86.2348 46.4326 86.2384M46.445 86.7383C46.4458 86.7383 46.4466 86.7382 46.4474 86.7382L46.4326 86.2384M46.445 86.7383C46.3248 86.7417 46.0941 86.7382 45.899 86.5763C45.7016 86.4126 45.6569 86.1836 45.6389 86.0637L45.6386 86.0618C45.115 82.4786 44.7185 78.8835 44.3807 75.2865M46.445 86.7383C46.4443 86.7383 46.4436 86.7383 46.4429 86.7383L46.4326 86.2384M46.4326 86.2384C46.2298 86.2445 46.1635 86.1903 46.1334 85.9895L43.9428 18.8937M43.9428 18.8937H43.4891C40.959 18.8937 38.4287 18.8937 35.8986 18.8776H35.8955C35.7618 18.8776 35.5472 18.8868 35.3512 19.0116C35.1341 19.1499 35.0384 19.3622 34.9902 19.5459L34.9897 19.5476C34.9169 19.8293 34.8343 20.1108 34.7487 20.3999C34.7411 20.4257 34.7334 20.4515 34.7257 20.4775C34.6483 20.7386 34.5688 21.0065 34.496 21.2761C34.261 22.1053 34.148 22.9644 34.1607 23.8263L34.1608 23.8313C34.1882 24.9416 34.3929 26.0364 34.5887 27.084C34.6455 27.3874 34.7014 27.6869 34.7522 27.9816L35.2449 27.8968L34.7522 27.9817C34.9608 29.1939 35.0856 30.3491 34.8682 31.4958C34.5939 32.9383 34.0196 34.2852 33.3475 35.6394C33.0737 36.1903 32.7809 36.7464 32.4848 37.3086C31.9104 38.3994 31.3239 39.5132 30.8413 40.656C29.8898 42.8864 29.5367 45.3265 29.8169 47.7351C29.9951 49.3038 30.4963 50.7742 31.0194 52.1866L31.0201 52.1885C31.1686 52.5845 31.3201 52.9756 31.4706 53.3642C31.9413 54.5795 32.4026 55.7705 32.734 57.011L32.734 57.0113C33.1158 58.4366 33.312 59.848 33.1229 61.2736L33.1228 61.2747C33.0278 62.0039 32.7236 62.6837 32.377 63.4277C30.9186 66.5148 30.4274 69.9707 30.968 73.3419C30.9916 73.5017 31.0413 73.7584 31.2459 73.9471C31.4597 74.1443 31.7299 74.1674 31.9199 74.1674L31.9228 74.1674C33.1339 74.1604 34.3389 74.1656 35.5469 74.1708C36.4215 74.1745 37.2977 74.1783 38.1788 74.1774C40.2053 74.1755 42.2504 74.1622 44.2863 74.143C44.3099 74.5288 44.3449 74.9117 44.3807 75.2865M44.3807 75.2865C44.3807 75.2864 44.3807 75.2864 44.3807 75.2863L44.8785 75.2395L44.3808 75.287C44.3807 75.2869 44.3807 75.2867 44.3807 75.2865ZM32.8945 86.7636L32.1942 86.7484C31.5471 86.7342 30.9054 86.7212 30.2672 86.7083C29.1837 86.6862 28.1105 86.6644 27.0385 86.6379C26.4851 86.6241 25.9384 86.6065 25.3936 86.589C24.6607 86.5654 23.9313 86.5419 23.1937 86.528C22.9495 86.5434 22.7062 86.4829 22.4974 86.3545C22.2871 86.2252 22.1226 86.0337 22.0265 85.8069C20.0753 81.962 18.5283 77.9251 17.4103 73.7609M32.8945 86.7636L17.8932 73.6313M32.8945 86.7636L32.6814 86.0963C32.6695 86.0592 32.6582 86.0232 32.6473 85.9883C32.6208 85.9036 32.5964 85.8256 32.5706 85.7544L32.5703 85.7538C31.1687 81.9145 30.078 77.9688 29.3089 73.9548L29.3087 73.9536C29.2708 73.7583 29.1986 73.5044 28.9875 73.3206C28.7698 73.1312 28.5054 73.1024 28.3049 73.1011H28.3018C27.4527 73.1011 26.6073 73.0837 25.756 73.0662C25.35 73.0579 24.9428 73.0495 24.5331 73.043L24.5326 73.043C22.3983 73.0109 20.2674 72.9528 18.1396 72.8527M32.8945 86.7636L18.1161 73.3522M17.4103 73.7609L17.8932 73.6313M17.4103 73.7609C17.4103 73.761 17.4104 73.761 17.4104 73.7611L17.8932 73.6313M17.4103 73.7609C17.3909 73.6886 17.3693 73.5935 17.3677 73.4933C17.366 73.3902 17.3848 73.2265 17.5059 73.0796C17.6263 72.9335 17.7821 72.884 17.8802 72.8656C17.9753 72.8478 18.0692 72.8492 18.1396 72.8527M17.8932 73.6313C17.829 73.3923 17.8792 73.3401 18.1161 73.3522M18.1396 72.8527L18.1161 73.3522M18.1396 72.8527C18.1402 72.8528 18.1409 72.8528 18.1415 72.8528L18.1161 73.3522M32.2051 86.2485L31.7288 86.4006C31.7105 86.3433 31.6963 86.298 31.6844 86.2599C31.682 86.252 31.6796 86.2445 31.6773 86.2372C31.8528 86.2409 32.0287 86.2446 32.2051 86.2485ZM32.2051 86.2485L32.213 85.8844L32.213 85.8842L32.216 85.7486C32.1556 85.7473 32.0953 85.746 32.035 85.7447C32.0568 85.8049 32.0787 85.8651 32.1007 85.9252C32.1225 85.9853 32.1415 86.0462 32.166 86.1245C32.1775 86.1614 32.1903 86.2021 32.2051 86.2485ZM0.560825 51.3092L0.562621 51.2924L0.563282 51.2755C0.868094 43.4954 2.8994 35.8804 6.51008 28.982L6.51037 28.9815C9.00713 24.1964 12.2211 19.8213 16.0407 16.0081C18.6249 13.4592 21.4572 11.1747 24.4955 9.18875L24.4981 9.187C29.3406 5.9779 34.6846 3.59923 40.3099 2.14894C43.831 1.25624 47.4336 0.72339 51.0623 0.558573C51.0664 0.55886 51.0744 0.559383 51.0897 0.560326C51.1142 0.561836 51.1676 0.565015 51.2287 0.55936C51.2882 0.553851 51.3665 0.539212 51.4497 0.5H55.5776C55.6511 0.53433 55.7199 0.548654 55.7723 0.554933C55.8322 0.5621 55.8843 0.560044 55.906 0.559186C55.919 0.558671 55.9258 0.5584 55.9288 0.558254C58.7104 0.685459 61.478 1.02847 64.2065 1.58421L64.2078 1.58447C68.7267 2.49263 73.1029 4.00486 77.2184 6.08042L77.219 6.08071C83.9684 9.47359 89.9184 14.2641 94.6736 20.1339C99.4288 26.0037 102.88 32.8184 104.799 40.125C105.622 43.2997 106.154 46.5427 106.39 49.8139C106.524 51.9373 106.536 54.0666 106.425 56.1914L106.425 56.196C106.331 58.3961 106.087 60.5872 105.694 62.7539L105.693 62.7552C104.014 72.1503 99.832 80.9184 93.5872 88.1357C87.3424 95.353 79.2665 100.752 70.2104 103.764C67.1687 104.769 64.04 105.487 60.8649 105.911L60.8593 105.912C55.1326 106.743 49.3074 106.615 43.6228 105.532L43.6217 105.532C37.2789 104.338 31.2107 101.985 25.7218 98.5891L25.4587 99.0143L25.7218 98.5891C21.8473 96.1926 18.293 93.3136 15.1445 90.021C6.45271 80.9298 1.29614 69.0316 0.605076 56.4729L0.605024 56.472C0.598127 56.3508 0.597884 56.2552 0.597614 56.1485C0.597393 56.0615 0.597154 55.967 0.59328 55.8451C0.586643 55.6361 0.567825 55.3998 0.501423 55.1561V53.2578C0.501423 53.1528 0.501075 53.049 0.500731 52.9463C0.498972 52.4213 0.497306 51.9239 0.542653 51.4267C0.550538 51.3879 0.556602 51.3486 0.560825 51.3092Z" fill="white" stroke="black"/>
<path d="M45.0382 19.8096L45.0542 19.8999H44.4575H43.5038H43.503C42.8707 19.8989 42.2382 19.8982 41.6054 19.8974C39.722 19.8952 37.8367 19.8929 35.9517 19.8841C35.8794 20.1573 35.8002 20.4271 35.7222 20.6902C35.7147 20.7157 35.7071 20.7412 35.6996 20.7666C35.6212 21.0308 35.545 21.288 35.4753 21.5461L35.4736 21.5523L35.4736 21.5523C35.2648 22.2882 35.1643 23.0505 35.1753 23.8154C35.2007 24.8367 35.385 25.8239 35.5775 26.8559C35.6365 27.1717 35.6962 27.4918 35.7524 27.8183C35.9653 29.0555 36.1177 30.3579 35.8653 31.6887L35.8653 31.6889C35.5653 33.2662 34.943 34.7101 34.2578 36.0905L34.2577 36.0907C33.9612 36.6875 33.6568 37.265 33.3556 37.8364C32.7944 38.9013 32.2443 39.945 31.7769 41.0521L31.7761 41.0539C30.8926 43.1246 30.5647 45.3902 30.825 47.6265L30.8252 47.6279C30.9885 49.0668 31.4511 50.4434 31.9717 51.8451C32.1212 52.2472 32.278 52.6525 32.4361 53.0613C32.9003 54.2615 33.3762 55.4917 33.7148 56.7591L33.7152 56.7607C34.1095 58.2557 34.3415 59.8078 34.129 61.4107C34.0111 62.3153 33.6371 63.1287 33.2974 63.8577L33.2963 63.8601C31.926 66.7602 31.463 70.0062 31.9675 73.1735C33.2237 73.1665 34.4839 73.1717 35.7413 73.1769C36.5601 73.1803 37.3776 73.1837 38.1921 73.1837C40.2206 73.1798 42.2491 73.1684 44.2776 73.1495C44.2004 71.714 44.7919 70.4904 45.3509 69.3895L45.3546 69.3823L45.3546 69.3823C46.2353 67.7149 46.8593 65.9242 47.2056 64.0706C47.3687 63.0647 47.4682 62.0495 47.5037 61.031L47.5038 61.0276C47.535 60.2786 47.5137 59.5308 47.4798 58.7697L47.4796 58.7652C47.3917 56.2945 46.846 53.8616 45.8703 51.5901C45.4361 50.6008 44.9497 49.6353 44.4131 48.6976L44.4124 48.6965C43.7068 47.4559 43.3766 46.0371 43.462 44.6126C43.4935 43.4656 43.8007 42.343 44.3577 41.3398L44.3643 41.3279L44.3644 41.328C45.0956 40.0915 45.7494 38.811 46.3224 37.4938C47.0562 35.7233 47.3728 33.8486 47.5393 31.9081L47.5394 31.9066C47.5526 31.7585 47.5885 31.4931 47.8073 31.3074C48.0159 31.1304 48.2751 31.1296 48.3929 31.1296H48.3939C48.7673 31.1304 49.1613 31.1209 49.563 31.1113C50.1795 31.0965 50.8141 31.0812 51.4202 31.1018C53.8601 31.1714 56.2727 31.6338 58.5654 32.4711L58.5671 32.4717C60.4567 33.1697 62.2291 34.151 63.8235 35.3821L63.8245 35.3829C65.9615 37.0417 67.7485 39.1077 69.0822 41.4613C70.2532 43.5067 71.0925 45.7248 71.569 48.0329L71.5693 48.0342C71.7827 49.0808 71.9297 50.1399 72.0095 51.2051C72.3963 55.9249 71.1701 60.2575 68.8517 64.2625C66.0754 69.0602 61.8746 71.9971 56.5339 73.3138L56.532 73.3143C55.129 73.6545 53.7 73.8771 52.26 73.9796M45.0382 19.8096L76.6329 31.0916C81.1296 35.7528 84.0928 41.2222 85.2364 47.6078L85.2364 47.6079C86.752 56.0614 84.9283 63.8022 80.028 70.8194C75.3969 77.4504 69.0853 81.788 61.3486 84.1032L61.347 84.1037C57.8447 85.1644 54.2041 85.6985 50.5446 85.6885H50.5433C49.232 85.6885 47.9215 85.7143 46.6163 85.7411C46.109 82.2407 45.7221 78.7248 45.391 75.1991L45.391 75.1983C45.3556 74.8277 45.3223 74.4623 45.2998 74.0993C46.0776 74.0924 46.8442 74.0936 47.5075 74.0947C47.7312 74.095 47.9432 74.0954 48.1399 74.0954H48.1574L48.1748 74.0941C48.9308 74.0412 49.6189 74.0361 50.2874 74.0329L50.361 74.0325C50.9995 74.0295 51.6275 74.0265 52.26 73.9796M45.0382 19.8096H45.0429H45.0554H45.0679H45.0805H45.093H45.1055H45.118H45.1306H45.1431H45.1556H45.1682H45.1807H45.1932H45.2057H45.2183H45.2308H45.2433H45.2559H45.2684H45.2809H45.2935H45.306H45.3185H45.331H45.3436H45.3561H45.3686H45.3812H45.3937H45.4062H45.4187H45.4313H45.4438H45.4563H45.4689H45.4814H45.4939H45.5065H45.519H45.5315H45.544H45.5566H45.5691H45.5816H45.5942H45.6067H45.6192H45.6317H45.6443H45.6568H45.6693H45.6819H45.6944H45.7069H45.7195H45.732H45.7445H45.757H45.7696H45.7821H45.7946H45.8072H45.8197H45.8322H45.8447H45.8573H45.8698H45.8823H45.8949H45.9074H45.9199H45.9324H45.945H45.9575H45.97H45.9826H45.9951H46.0076H46.0202H46.0327H46.0452H46.0577H46.0703H46.0828H46.0953H46.1079H46.1204H46.1329H46.1454H46.158H46.1705H46.183H46.1956H46.2081H46.2206H46.2332H46.2457H46.2582H46.2707H46.2833H46.2958H46.3083H46.3209H46.3334H46.3459H46.3584H46.371H46.3835H46.396H46.4086H46.4211H46.4336H46.4462H46.4587H46.4712H46.4837H46.4963H46.5088H46.5213H46.5339H46.5464H46.5589H46.5714H46.584H46.5965H46.609H46.6216H46.6341H46.6466H46.6592H46.6717H46.6842H46.6967H46.7093H46.7218H46.7343H46.7469H46.7594H46.7719H46.7844H46.797H46.8095H46.822H46.8346H46.8471H46.8596H46.8722H46.8847H46.8972H46.9097H46.9223H46.9348H46.9473H46.9599H46.9724H46.9849H46.9974H47.01H47.0225H47.035H47.0476H47.0601H47.0726H47.0851H47.0977H47.1102H47.1227H47.1353H47.1478H47.1603H47.1729H47.1854H47.1979H47.2104H47.223H47.2355H47.248H47.2606H47.2731H47.2856H47.2981H47.3107H47.3232H47.3357H47.3483H47.3608H47.3733H47.3859H47.3984H47.4109H47.4234H47.436H47.4485H47.461H47.4736H47.4861H47.4986H47.5111H47.5237H47.5362H47.5487H47.5613H47.5738H47.5863H47.5989H47.6114H47.6239H47.6364H47.649H47.6615H47.674H47.6866H47.6991H47.7116H47.7241H47.7367H47.7492H47.7617H47.7743H47.7868H47.7993H47.8119H47.8244H47.8369H47.8494H47.862H47.8745H47.887H47.8996H47.9121H47.9246H47.9371H47.9497H47.9622H47.9747H47.9873H47.9998H48.0123H48.0249H48.0374H48.0499H48.0624H48.075H48.0875H48.1H48.1126H48.1251H48.1376H48.1501H48.1627H48.1752H48.1877H48.2003H48.2128H48.2253H48.2378H48.2504H48.2629H48.2754H48.288H48.3005H48.313H48.3256H48.3381H48.3506H48.3631H48.3757H48.3882H48.4007H48.4133H48.4258H48.4383H48.4508H48.4634H48.4759H48.4884H48.501H48.5135H48.526H48.5386H48.5511H48.5636H48.5761H48.5887H48.6012H48.6137H48.6263H48.6388H48.6513H48.6638H48.6764H48.6889H48.7014H48.714H48.7265H48.739H48.7516H48.7641H48.7766H48.7891H48.8017H48.8142H48.8267H48.8393H48.8518H48.8643H48.8768H48.8894H48.9019H48.9144H48.927H48.9395H48.952H48.9646H48.9771H48.9896H49.0021H49.0147H49.0272H49.0397H49.0523H49.0648H49.0773H49.0898H49.1024H49.1149H49.1274H49.14H49.1525H49.165H49.1775H49.1901H49.2026H49.2151H49.2277H49.2402H49.2527H49.2653H49.2778H49.2903H49.3028H49.3154H49.3279H49.3404H49.353H49.3655H49.378H49.3905H49.4031H49.4156H49.4281H49.4407H49.4532H49.4657H49.4783H49.4908H49.5033H49.5158H49.5284H49.5409H49.5534H49.566H49.5785H49.591H49.6035H49.6161H49.6286H49.6411H49.6537H49.6662H49.6787H49.6913H49.7038H49.7163H49.7288H49.7414H49.7539H49.7664H49.779H49.7915H49.804H49.8165H49.8291H49.8416H49.8541H49.8667H49.8792H49.8917H49.9043H49.9168H49.9293H49.9418H49.9544H49.9669H49.9794H49.992H50.0045H50.017H50.0295H50.0421H50.0546H50.0671H50.0797H50.0922H50.1047H50.1173H50.1298H50.1423H50.1548H50.1674H50.1799H50.1924H50.205H50.2175H50.23H50.2425H50.2551H50.2676H50.2801H50.2927H50.3052H50.3177H50.3302H50.3428H50.3553H50.3678H50.3804H50.3929H50.4054H50.418H50.4305H50.443H50.4555H50.4681H50.4806H50.4931H50.5057H50.5182H50.5307H50.5432H50.5558H50.5683H50.5808H50.5934H50.6059H50.6184H50.631H50.6435H50.656H50.6685H50.6811H50.6936H50.7061H50.7187H50.7312H50.7437H50.7562H50.7688H50.7813H50.7938H50.8064H50.8189H50.8314H50.844H50.8539C54.7608 19.8505 58.6319 20.56 62.2994 21.9072L62.2994 21.9073L62.3063 21.9097C67.7318 23.8125 72.6376 26.9566 76.6326 31.0913L45.0382 19.8096ZM52.26 73.9796C52.2597 73.9796 52.2595 73.9796 52.2593 73.9797L52.2238 73.4809L52.2608 73.9795C52.2605 73.9796 52.2602 73.9796 52.26 73.9796Z" fill="black" stroke="black"/>
<path d="M23.1599 85.5272L23.1868 85.5277C23.9328 85.5416 24.6874 85.5659 25.4377 85.59C25.9828 85.6075 26.5255 85.6249 27.061 85.6382L23.1599 85.5272ZM23.1599 85.5272L23.1332 85.5296M23.1599 85.5272L23.1332 85.5296M23.1332 85.5296C23.0932 85.5332 23.0531 85.5237 23.0188 85.5027C22.9846 85.4816 22.9581 85.4501 22.9432 85.4128L22.9348 85.3918M23.1332 85.5296L22.9348 85.3918M22.9348 85.3918L22.9246 85.3716M22.9348 85.3918L22.9246 85.3716M22.9246 85.3716C21.0581 81.6964 19.567 77.8428 18.4737 73.8692M22.9246 85.3716L18.4737 73.8692M18.4737 73.8692C20.4867 73.9592 22.5006 74.0126 24.515 74.0429C24.9056 74.0491 25.2975 74.0563 25.6902 74.0636C26.5572 74.0796 27.4277 74.0956 28.2963 74.1011V74.1012H28.2995C28.3051 74.1012 28.3105 74.1012 28.3155 74.1013C28.3184 74.1137 28.3215 74.1277 28.3246 74.1437C29.0795 78.0836 30.1402 81.9586 31.497 85.7333C31.0901 85.7248 30.6858 85.7166 30.2832 85.7084C29.2011 85.6865 28.1317 85.6647 27.0611 85.6382L18.4737 73.8692Z" fill="black" stroke="black"/>
<path d="M45.2853 73.0921H45.2836C45.2132 71.9577 45.6726 70.9529 46.2482 69.8379C47.1763 68.0804 47.8336 66.1928 48.1979 64.2389L48.1981 64.239L48.1999 64.2274C48.3703 63.1786 48.4742 62.1201 48.5112 61.0582C48.5441 60.2666 48.5213 59.4857 48.4871 58.7181C48.3945 56.1238 47.8213 53.5692 46.7964 51.1841L46.7965 51.1841L46.7949 51.1806C46.3464 50.1585 45.8439 49.161 45.2896 48.1922C44.6787 47.1179 44.3935 45.8891 44.4689 44.6556L44.4694 44.6469L44.4696 44.6383C44.4956 43.6514 44.7588 42.6853 45.237 41.8217C45.9884 40.5503 46.6605 39.2337 47.2494 37.8794L47.2494 37.8794L47.2527 37.8716C48.0257 36.0082 48.358 34.0643 48.532 32.1201C48.9066 32.1183 49.2671 32.1094 49.6218 32.1006C50.216 32.0858 50.7942 32.0715 51.3959 32.092L51.3986 32.0921C53.7312 32.1585 56.0378 32.6004 58.2297 33.4008C60.0236 34.0635 61.7062 34.9952 63.2199 36.1638C65.2527 37.7419 66.9525 39.7072 68.2211 41.9462L68.2222 41.9481C69.3408 43.9018 70.1426 46.0204 70.5978 48.2252C70.8028 49.2309 70.9441 50.2486 71.0207 51.2722L71.021 51.2758C71.3887 55.7592 70.2296 59.891 67.9945 63.7522L67.9945 63.7523C65.366 68.2944 61.3974 71.0759 56.3037 72.3334C54.9549 72.6605 53.581 72.8744 52.1966 72.9729L52.1927 72.9732C51.5852 73.0211 50.9755 73.0248 50.3111 73.0287L50.2865 73.0289C49.6221 73.0329 48.9087 73.0378 48.1247 73.0921H48.1226H48.1177H48.1128H48.1079H48.103H48.0981H48.0932H48.0883H48.0833H48.0784H48.0734H48.0685H48.0635H48.0586H48.0536H48.0486H48.0436H48.0386H48.0337H48.0287H48.0236H48.0186H48.0136H48.0086H48.0036H47.9985H47.9935H47.9884H47.9834H47.9783H47.9732H47.9682H47.9631H47.958H47.9529H47.9478H47.9427H47.9376H47.9325H47.9273H47.9222H47.9171H47.9119H47.9068H47.9016H47.8965H47.8913H47.8861H47.881H47.8758H47.8706H47.8654H47.8602H47.855H47.8498H47.8446H47.8394H47.8341H47.8289H47.8237H47.8184H47.8132H47.8079H47.8026H47.7974H47.7921H47.7868H47.7815H47.7763H47.771H47.7657H47.7604H47.755H47.7497H47.7444H47.7391H47.7337H47.7284H47.7231H47.7177H47.7124H47.707H47.7016H47.6963H47.6909H47.6855H47.6801H47.6747H47.6693H47.6639H47.6585H47.6531H47.6477H47.6422H47.6368H47.6314H47.6259H47.6205H47.615H47.6096H47.6041H47.5987H47.5932H47.5877H47.5822H47.5767H47.5712H47.5658H47.5603H47.5547H47.5492H47.5437H47.5382H47.5327H47.5271H47.5216H47.5161H47.5105H47.505H47.4994H47.4938H47.4883H47.4827H47.4771H47.4715H47.466H47.4604H47.4548H47.4492H47.4436H47.438H47.4323H47.4267H47.4211H47.4155H47.4098H47.4042H47.3985H47.3929H47.3872H47.3816H47.3759H47.3703H47.3646H47.3589H47.3532H47.3475H47.3419H47.3362H47.3305H47.3248H47.3191H47.3133H47.3076H47.3019H47.2962H47.2904H47.2847H47.279H47.2732H47.2675H47.2617H47.256H47.2502H47.2444H47.2387H47.2329H47.2271H47.2213H47.2156H47.2098H47.204H47.1982H47.1924H47.1866H47.1807H47.1749H47.1691H47.1633H47.1575H47.1516H47.1458H47.1399H47.1341H47.1282H47.1224H47.1165H47.1107H47.1048H47.0989H47.0931H47.0872H47.0813H47.0754H47.0695H47.0636H47.0577H47.0518H47.0459H47.04H47.0341H47.0282H47.0223H47.0163H47.0104H47.0045H46.9985H46.9926H46.9867H46.9807H46.9748H46.9688H46.9628H46.9569H46.9509H46.9449H46.939H46.933H46.927H46.921H46.915H46.909H46.903H46.897H46.891H46.885H46.879H46.873H46.867H46.861H46.855H46.8489H46.8429H46.8369H46.8308H46.8248H46.8187H46.8127H46.8066H46.8006H46.7945H46.7885H46.7824H46.7763H46.7702H46.7642H46.7581H46.752H46.7459H46.7398H46.7337H46.7277H46.7216H46.7155H46.7093H46.7032H46.6971H46.691H46.6849H46.6788H46.6727H46.6665H46.6604H46.6543H46.6481H46.642H46.6358H46.6297H46.6236H46.6174H46.6112H46.6051H46.5989H46.5928H46.5866H46.5804H46.5743H46.5681H46.5619H46.5557H46.5495H46.5434H46.5372H46.531H46.5248H46.5186H46.5124H46.5062H46.5H46.4938H46.4875H46.4813H46.4751H46.4689H46.4627H46.4564H46.4502H46.444H46.4378H46.4315H46.4253H46.419H46.4128H46.4066H46.4003H46.3941H46.3878H46.3815H46.3753H46.369H46.3628H46.3565H46.3502H46.344H46.3377H46.3314H46.3251H46.3188H46.3126H46.3063H46.3H46.2937H46.2874H46.2811H46.2748H46.2685H46.2622H46.2559H46.2496H46.2433H46.237H46.2307H46.2243H46.218H46.2117H46.2054H46.1991H46.1927H46.1864H46.1801H46.1737H46.1674H46.1611H46.1547H46.1484H46.1421H46.1357H46.1294H46.123H46.1167H46.1103H46.104H46.0976H46.0912H46.0849H46.0785H46.0721H46.0658H46.0594H46.053H46.0467H46.0403H46.0339H46.0275H46.0212H46.0148H46.0084H46.002H45.9956H45.9892H45.9829H45.9765H45.9701H45.9637H45.9573H45.9509H45.9445H45.9381H45.9317H45.9253H45.9189H45.9125H45.906H45.8996H45.8932H45.8868H45.8804H45.874H45.8676H45.8611H45.8547H45.8483H45.8419H45.8354H45.829H45.8226H45.8161H45.8097H45.8033H45.7968H45.7904H45.784H45.7775H45.7711H45.7647H45.7582H45.7518H45.7453H45.7389H45.7324H45.726H45.7195H45.7131H45.7066H45.7002H45.6937H45.6873H45.6808H45.6744H45.6679H45.6614H45.655H45.6485H45.642H45.6356H45.6291H45.6227H45.6162H45.6097H45.6032H45.5968H45.5903H45.5838H45.5774H45.5709H45.5644H45.5579H45.5515H45.545H45.5385H45.532H45.5255H45.5191H45.5126H45.5061H45.4996H45.4931H45.4866H45.4802H45.4737H45.4672H45.4607H45.4542H45.4477H45.4412H45.4347H45.4283H45.4218H45.4153H45.4088H45.4023H45.3958H45.3893H45.3828H45.3763H45.3698H45.3633H45.3568H45.3503H45.3438H45.3373H45.3308H45.3243H45.3178H45.3113H45.3048H45.2983H45.2918H45.2853Z" fill="white" stroke="black"/>
</svg>
