<svg width="314" height="150" viewBox="0 0 314 150" fill="none" xmlns="http://www.w3.org/2000/svg">
<path d="M28.4957 120.808H0.158203V149.132H28.4957V120.808Z" fill="#FFB68C"/>
<path d="M184.6 0.220703H153.611V138.365H184.6V0.220703Z" fill="black"/>
<path d="M303.916 71.9432C297.785 65.152 289.002 60.1827 277.899 57.0356L262.653 53.0602C257.184 51.5694 253.041 49.7473 250.39 47.4284C247.738 45.1094 246.413 42.2935 246.578 38.8151C246.744 35.3366 248.235 32.6864 251.053 30.6987C253.87 28.8766 257.681 27.8828 262.321 27.8828C266.464 27.8828 270.276 29.0422 273.59 31.1956C276.904 33.5145 279.39 36.993 280.716 41.9622H310.379C309.882 31.0299 305.242 21.4228 296.459 12.9751C287.676 4.52739 276.242 0.220703 262.156 0.220703C248.235 0.220703 237.132 3.86482 228.847 11.3187C220.561 18.6069 216.418 28.5453 216.418 40.9684C216.584 51.0725 219.732 59.5202 226.195 66.3115C232.658 73.1027 241.441 77.9063 252.544 81.0535L265.47 84.3663C277.07 87.6791 283.036 92.4827 283.036 98.777C283.036 102.421 281.379 105.237 278.23 107.39C275.081 109.544 270.939 110.538 265.801 110.538C259.836 110.538 254.698 109.047 250.721 105.9C246.578 102.752 244.092 98.6114 243.098 92.9796H213.104C213.601 105.071 218.572 115.507 228.184 124.617C237.795 133.727 250.224 138.2 265.801 138.2C279.887 138.2 291.487 134.39 300.27 126.605C309.053 118.82 313.362 109.378 313.362 97.7832C313.196 87.5135 310.048 78.7345 303.916 71.9432Z" fill="black"/>
<path d="M106.549 20.2638C92.7942 6.84691 76.0568 0.0556641 56.6679 0.0556641H15.2388C13.9131 0.0556641 12.9188 1.0495 13.0845 2.37463C13.5816 11.1536 16.3988 16.1228 18.5531 20.0982C20.2103 22.9141 20.8732 24.0736 20.8732 27.7177C20.8732 31.3618 20.2103 32.5212 18.5531 35.3371C16.2331 39.4782 13.0845 45.11 13.0845 55.214C13.0845 65.3181 16.2331 70.9499 18.5531 75.0909C20.2103 77.9068 20.8732 79.0663 20.8732 82.7104C20.8732 86.3545 20.2103 87.514 18.5531 90.3299C16.3988 94.1397 13.4159 99.2745 13.0845 108.053C13.0845 109.213 14.0788 110.372 15.2388 110.372H41.9192V138.697H56.6679C76.2225 138.697 92.7942 131.906 106.549 118.489C120.303 105.072 127.263 88.6735 127.263 69.6248C127.263 50.0792 120.303 33.6807 106.549 20.2638ZM84.8398 98.115C77.5482 106.066 68.1024 109.876 56.6679 109.876H42.0849C42.0849 106.231 42.7477 105.072 44.4049 102.422C46.7249 98.2807 49.8736 92.6489 49.8736 82.5448C49.8736 72.4407 46.7249 66.8089 44.4049 62.6679C42.7477 59.852 42.0849 58.6925 42.0849 55.0484C42.0849 51.4043 42.7477 50.2448 44.4049 47.4289C46.5592 43.7848 49.3764 38.8156 49.8736 30.5336C49.8736 29.3741 50.8679 28.5459 52.0279 28.5459H56.6679C68.1024 28.5459 77.5482 32.5212 84.8398 40.3064C92.1313 48.2571 95.9428 57.8643 95.9428 69.2935C95.7771 80.5571 92.1313 90.3299 84.8398 98.115Z" fill="black"/>
</svg>
