<svg width="283" height="264" viewBox="0 0 283 264" fill="none" xmlns="http://www.w3.org/2000/svg">
<path d="M221.904 218.321L221.868 218.32L221.834 218.325C214.102 219.305 206.109 223.094 198.094 227.618C194.995 229.368 191.898 231.223 188.807 233.075C183.865 236.035 178.938 238.988 174.033 241.487C166.077 245.541 158.315 248.326 150.914 247.935C143.555 247.546 136.475 244.012 129.866 235.257C117.521 214.245 109.019 201.347 98.8257 192.665C88.6171 183.971 76.7505 179.536 57.7653 175.336C54.5852 173.849 51.4647 171.914 49.3954 168.106C47.2832 164.212 46.5025 159.025 46.0322 153.415C45.8943 151.771 45.7831 150.089 45.6714 148.398C45.4049 144.365 45.1349 140.28 44.4903 136.524C41.1777 117.224 31.2315 107.847 22.3226 99.448C21.444 98.6197 20.5755 97.801 19.7244 96.9831C14.9816 92.4253 10.8016 87.9189 8.3406 81.9633C5.88461 76.0197 5.11971 68.5771 7.32706 58.1213C10.9848 40.7954 19.3784 26.042 30.2063 16.9936C41.0222 7.9553 54.2491 4.61497 67.6776 10.0303L67.7014 10.0399L67.7262 10.047C73.3094 11.6555 76.1233 15.684 78.1085 20.9366C79.1006 23.5616 79.8761 26.4677 80.6878 29.5091L80.6953 29.5371C81.5073 32.5798 82.3548 35.7515 83.4865 38.8545C85.753 45.0693 89.1744 51.0523 95.803 55.311C102.423 59.5642 112.175 62.0544 127.017 61.4346C137.34 61.0035 146.619 60.2166 155.011 59.5049C158.644 59.1967 162.111 58.9027 165.425 58.6577C176.411 57.8456 185.71 57.5729 193.892 59.0792C202.056 60.582 209.11 63.8565 215.605 70.1579C222.111 76.4705 228.077 85.8412 234.015 99.5712L234.022 99.5893L234.032 99.6067C235.184 101.782 236.546 105.357 238.059 109.467C238.304 110.133 238.553 110.812 238.806 111.501C240.105 115.047 241.497 118.843 242.937 122.344C244.654 126.516 246.458 130.318 248.287 132.795C249.198 134.03 250.151 134.986 251.147 135.472C252.035 135.907 252.95 135.961 253.84 135.538C256.761 140.016 258.837 146.363 260.019 153.636C261.234 161.11 261.498 169.525 260.786 177.817C260.075 186.111 258.388 194.265 255.71 201.222C253.033 208.179 249.381 213.898 244.763 217.383C241.087 219.786 237.369 220.07 233.565 219.722C232.02 219.58 230.474 219.336 228.909 219.089C228.536 219.03 228.162 218.971 227.786 218.913C225.845 218.614 223.877 218.348 221.904 218.321Z" fill="url(#paint0_linear)" stroke="#DFDFDF"/>
<defs>
<linearGradient id="paint0_linear" x1="141.348" y1="34.6307" x2="155.657" y2="255.479" gradientUnits="userSpaceOnUse">
<stop stop-color="#E2E2E2"/>
<stop offset="0.7908" stop-color="white" stop-opacity="0"/>
</linearGradient>
</defs>
</svg>
