<svg width="320" height="466" viewBox="0 0 320 466" fill="none" xmlns="http://www.w3.org/2000/svg">
<path d="M381.579 386.757L381.546 386.756L381.514 386.76C367.042 388.301 352.107 394.725 337.085 402.469C331.297 405.453 325.502 408.629 319.711 411.803C310.437 416.886 301.174 421.963 291.964 426.236C277.021 433.17 262.344 437.922 248.241 437.072C234.175 436.224 220.615 429.8 207.892 414.246C184.137 377.192 167.853 354.492 148.497 339.131C129.127 323.76 106.722 315.767 70.8046 308.014C64.7165 305.322 58.6646 301.818 54.6033 294.983C50.4901 288.049 48.9032 278.886 47.8965 269.06C47.5999 266.165 47.3537 263.212 47.1066 260.246C46.5184 253.189 45.9246 246.064 44.632 239.496C37.9949 205.773 19.1216 189.232 2.14094 174.35C0.46573 172.881 -1.19106 171.429 -2.81586 169.979C-11.8701 161.894 -19.9095 153.87 -24.7154 143.317C-29.5138 132.78 -31.1117 119.666 -27.1591 101.368C-20.6141 71.0679 -5.05697 45.3503 15.2646 29.6814C35.5749 14.0212 60.6404 8.39528 86.2921 18.2344L86.3144 18.2429L86.3374 18.2493C97.1753 21.2578 106.2 28.9047 114.512 38.6366C120.619 45.7868 126.309 54.0194 132.041 62.3136C134.115 65.3154 136.195 68.3252 138.303 71.2947C154.097 93.5507 171.44 113.561 199.162 109.427C214.793 110.355 231.083 109.589 247.448 108.82C249.893 108.705 252.339 108.59 254.785 108.48C273.639 107.637 292.487 107.122 310.523 109.491C328.553 111.859 345.753 117.107 361.311 127.776C376.867 138.445 390.813 154.555 402.304 178.697L402.312 178.715L402.322 178.733C404.559 182.592 407.214 188.903 410.154 196.12C410.632 197.292 411.117 198.488 411.608 199.699C414.135 205.932 416.838 212.596 419.627 218.747C422.954 226.085 426.424 232.738 429.893 237.069C431.625 239.232 433.391 240.861 435.179 241.687C436.86 242.464 438.559 242.527 440.21 241.681C445.984 249.662 450.127 261.001 452.55 273.952C455.007 287.09 455.686 301.85 454.517 316.372C453.349 330.894 450.334 345.16 445.416 357.314C440.498 369.467 433.692 379.47 424.963 385.529C417.958 389.733 410.824 390.151 403.576 389.455C400.639 389.173 397.698 388.71 394.738 388.244C394.035 388.133 393.331 388.022 392.625 387.914C388.959 387.349 385.268 386.846 381.579 386.757Z" fill="url(#paint0_linear)" fill-opacity="0.75" stroke="#E2E2E2"/>
<defs>
<linearGradient id="paint0_linear" x1="225.659" y1="63.196" x2="244.584" y2="450.627" gradientUnits="userSpaceOnUse">
<stop stop-color="#E2E2E2"/>
<stop offset="0.7908" stop-color="white" stop-opacity="0"/>
</linearGradient>
</defs>
</svg>
