<svg width="320" height="314" viewBox="0 0 320 314" fill="none" xmlns="http://www.w3.org/2000/svg">
<path d="M280.237 260.349L280.207 260.348L280.177 260.35C269.775 261.238 259.088 265.351 248.365 270.328C244.227 272.248 240.091 274.293 235.96 276.336C229.348 279.605 222.75 282.867 216.176 285.603C205.513 290.041 195.034 293.036 184.922 292.349C174.841 291.664 165.074 287.317 155.819 276.966C138.424 252.299 126.51 237.152 112.448 226.824C98.3764 216.489 82.1927 211.006 56.3264 205.564C51.9355 203.734 47.5929 201.378 44.6414 196.872C41.6475 192.294 40.4281 186.269 39.6164 179.778C39.3782 177.873 39.1752 175.927 38.971 173.97C38.4841 169.302 37.9909 164.575 37.0003 160.217C31.9133 137.837 18.1645 126.715 5.83578 116.743C4.61842 115.758 3.41488 114.784 2.23492 113.812C-4.3426 108.393 -10.167 103.042 -13.6979 96.0659C-17.218 89.1115 -18.4835 80.4882 -15.8185 68.4835C-11.4019 48.5887 -0.485773 31.7962 13.9324 21.6643C28.3412 11.5389 46.2543 8.05682 64.7357 14.7714L64.7563 14.7789L64.7775 14.7846C72.5603 16.8606 79.0919 21.9713 85.1414 28.4598C89.5873 33.2284 93.7415 38.7043 97.9323 44.2286C99.4506 46.23 100.974 48.2377 102.517 50.2204C114.066 65.0557 126.741 78.4703 146.675 75.9911C157.914 76.7445 169.61 76.3867 181.354 76.0274C183.109 75.9737 184.864 75.92 186.62 75.8699C200.155 75.4841 213.681 75.3157 226.648 77.0414C239.61 78.7666 251.995 82.3824 263.248 89.5536C274.498 96.7229 284.644 107.463 293.104 123.478L293.113 123.496L293.125 123.514C294.758 126.069 296.717 130.246 298.896 135.039C299.25 135.817 299.608 136.61 299.972 137.414C301.844 141.55 303.848 145.977 305.908 150.066C308.366 154.941 310.926 159.38 313.471 162.286C314.742 163.738 316.041 164.844 317.356 165.416C318.564 165.941 319.789 166.013 320.979 165.493C325.147 170.783 328.197 178.246 330.042 186.758C331.921 195.432 332.542 205.162 331.836 214.718C331.129 224.275 329.097 233.642 325.685 241.595C322.274 249.546 317.497 256.052 311.32 259.95C306.363 262.64 301.272 262.854 296.068 262.329C293.96 262.117 291.847 261.785 289.716 261.451C289.21 261.371 288.703 261.292 288.194 261.214C285.555 260.808 282.894 260.441 280.237 260.349Z" fill="url(#paint0_linear)" stroke="#DFDFDF"/>
<path d="M74.3414 -1.86612C55.5961 44.5038 104.545 46.9692 105.688 96.9188C105.977 109.519 102.075 124.349 105.949 134.519C107.877 139.568 111.528 142.601 115.241 145.072C160.562 163.381 170.138 176.103 192.873 230.084C219.328 276.949 271.667 229.444 310.034 231.954C319.572 233.844 328.466 240.053 338.795 236.052C364.759 223.989 377.124 166.699 365.142 142.808C355.764 146.479 351.751 108.792 347.602 97.5588C328.389 28.8808 268.633 39.8306 222.074 28.8827C185.207 28.0561 185.984 -30.659 158.59 -43.6296C126.98 -62.478 89.8424 -40.2105 74.3414 -1.86612Z" fill="url(#paint1_linear)" fill-opacity="0.5"/>
<path d="M310.131 231.464L310.099 231.458L310.067 231.455C300.377 230.821 289.836 233.345 279.112 236.716C274.971 238.018 270.81 239.443 266.655 240.866C260.007 243.143 253.373 245.415 246.857 247.169C236.287 250.015 226.163 251.455 217.06 249.307C207.992 247.169 199.874 241.457 193.323 229.863C181.964 202.896 173.86 186.151 162.9 173.868C151.928 161.573 138.129 153.782 115.476 144.628C111.807 142.182 108.281 139.225 106.416 134.341C104.522 129.368 104.518 123.217 104.973 116.665C105.107 114.742 105.28 112.783 105.454 110.813C105.87 106.119 106.29 101.367 106.188 96.9074C105.664 73.9981 95.1394 60.9774 85.7003 49.2993C84.7688 48.147 83.848 47.0077 82.9483 45.8733C77.9341 39.5506 73.5964 33.4043 71.6541 25.9806C69.7163 18.5743 70.1496 9.8373 74.805 -1.67873C82.5185 -20.7594 95.6054 -35.8125 110.658 -43.7529C125.699 -51.6866 142.698 -52.5234 158.334 -43.2002L158.354 -43.1879L158.376 -43.1777C165.091 -39.9981 170.116 -33.9975 174.452 -26.6887C177.638 -21.3187 180.426 -15.2907 183.24 -9.20827C184.26 -7.00437 185.282 -4.79333 186.329 -2.60387C194.147 13.7569 203.276 28.9334 222.01 29.3813C232.152 31.7622 242.917 33.1088 253.721 34.4604C255.335 34.6624 256.951 34.8645 258.565 35.0701C271.015 36.6562 283.41 38.4558 294.944 42.0493C306.472 45.6409 317.121 51.0194 326.081 59.7522C335.04 68.4837 342.337 80.5948 347.12 97.6935L347.126 97.713L347.133 97.732C348.156 100.501 349.177 104.925 350.286 109.991C350.466 110.813 350.648 111.651 350.832 112.5C351.781 116.871 352.797 121.548 353.927 125.898C355.275 131.085 356.798 135.856 358.591 139.107C359.486 140.73 360.473 142.024 361.582 142.79C362.594 143.488 363.706 143.743 364.886 143.419C367.708 149.26 369.115 157.082 369.232 165.767C369.351 174.638 368.124 184.371 365.714 193.741C363.304 203.111 359.716 212.101 355.126 219.489C350.535 226.877 344.964 232.629 338.599 235.591C333.582 237.53 328.903 237.003 324.25 235.73C322.364 235.213 320.495 234.578 318.608 233.937C318.16 233.785 317.71 233.632 317.259 233.48C314.92 232.694 312.55 231.943 310.131 231.464Z" stroke="#E7E7E7" stroke-opacity="0.25"/>
<defs>
<linearGradient id="paint0_linear" x1="165.295" y1="45.5472" x2="173.565" y2="301.717" gradientUnits="userSpaceOnUse">
<stop stop-color="#E2E2E2"/>
<stop offset="0.7908" stop-color="white" stop-opacity="0"/>
</linearGradient>
<linearGradient id="paint1_linear" x1="244.638" y1="1.92732" x2="213.087" y2="257.937" gradientUnits="userSpaceOnUse">
<stop stop-color="#E2E2E2"/>
<stop offset="0.7908" stop-color="white" stop-opacity="0"/>
</linearGradient>
</defs>
</svg>
