<svg width="320" height="568" viewBox="0 0 320 568" fill="none" xmlns="http://www.w3.org/2000/svg">
<path d="M200.299 537.8L252.699 568H305.999L200.199 506.8L200.299 537.8Z" fill="#FFB68C"/>
<path d="M146.7 352.2L146.6 321.1L0 236.4V267.3L146.7 352.2Z" fill="#FFB68C"/>
<path d="M119.801 429.3L146.601 414V413.9L12.8008 336.6L13.0008 367.6L119.801 429.3Z" fill="#FFB68C"/>
<path d="M222.9 241.4L93.1 166.4L93 197.4L200.4 259.1L227 243.7L222.9 241.4Z" fill="#FFB68C"/>
<path d="M253.899 197.2L319.999 235.5V204.7L253.699 166.4L253.899 197.2Z" fill="#FFB68C"/>
<path d="M66.4008 553.1L92.6008 538L93.1008 537.7L12.8008 491.3L13.0008 522.3L66.4008 553.1Z" fill="#FFB68C"/>
<path d="M146.7 42.6998L307.3 135.5L320 128.1V111.9L146.6 11.7998L146.7 42.6998Z" fill="#FFB68C"/>
<path d="M39.6 42.5998L0 19.7998V50.8998L12.4 58.2998L39.6 42.5998Z" fill="#FFB68C"/>
<path d="M200.5 383.2L307.3 444.7L320 437.4V421.3L200.4 352.2L200.5 383.2Z" fill="#FFB68C"/>
<path d="M307.301 43.3002L320.001 50.6002V19.1002L307.301 11.7002V43.3002Z" fill="#FFB68C"/>
<path d="M254.499 507.2L253.699 506.7L319.999 468.4L253.699 506.7L254.499 507.2Z" fill="#383838"/>
<path d="M320 390.3V344.8L280.6 367.6L320 390.3Z" fill="#383838"/>
<path d="M320 545V499.3L280.5 522.2L320 545Z" fill="#383838"/>
<path d="M319.999 80.9V50.6L307.299 43.3V11.7L319.999 4.4V0H274.099L226.999 27.2L200.199 11.7L220.499 0L200.199 11.7L319.999 80.9Z" fill="#383838"/>
<path d="M254.1 352.3L254 352.2L320 313.9L254 352.2L254.1 352.3Z" fill="#383838"/>
<path d="M93.0996 537.7L92.5996 538L93.0996 537.7Z" fill="#383838"/>
<path d="M0 50.9004V65.5004L12.4 58.3004L0 50.9004Z" fill="#383838"/>
<path d="M0 0V3.6L6.3 0H0Z" fill="#383838"/>
<path d="M200.2 506.8V506.7L320 437.4L307.3 444.7L200.5 383.2L200.4 352.2L320 421.3L200.4 352.2L320 282.9V235.5L253.9 197.2L253.7 166.4L320 204.7L253.7 166.4L307.3 135.5L146.7 42.7L146.6 11.8L320 111.9L146.6 11.7L166.9 0H113.4L66.4 27.2L93.1 42.6L0 96.4L93.1 42.7L93 73.6L0 127.4V205.4L146.6 290.2L200.4 259.1L93 197.4L93.1 166.4L222.9 241.4L93.1 166.4L200.2 104.5L227 120L173.4 150.9L146.6 166.4L227 120L227.3 150.8L173.5 181.9L146.6 166.4L280.5 243.7L146.6 321.1L0 236.4L146.6 321.1L280.5 243.7L280.2 274.8L146.7 352.2L0 267.3V312.9L12.7 305.6L200.2 413.9L200.4 444.7L93.8 507.2L66.1 491.3L146.6 537.7L94.2 568L146.6 537.7L146.7 568H252.7L200.3 537.8L200.2 506.8Z" fill="#383838"/>
<path d="M13 522.3L12.8 491.3V491.2V491.3L146.6 414L119.8 429.3L13 367.6L12.8 336.6L13 367.6L0 375.1V405.8L12.8 398.5L39.6 413.9V444.9L0 467.9V568H40.6L66.4 553.1L13 522.3Z" fill="#383838"/>
<path d="M39.6 413.9L12.8 398.5L0 405.8V436.8L39.6 413.9Z" fill="#D6D6D6"/>
<path d="M12.8 336.6L0 344V375.1L13 367.6L12.8 336.6Z" fill="#ABABAB"/>
<path d="M39.6 413.9L0 436.8V467.9L39.6 444.9V413.9Z" fill="#ABABAB"/>
<path d="M280.5 243.7L146.6 166.4L173.4 150.9L227 120L200.2 104.5L93.1 166.4L222.9 241.4L227 243.7L200.4 259.1L146.6 290.2L0 205.4V236.4L146.6 321.1L280.5 243.7Z" fill="#D6D6D6"/>
<path d="M93.1 42.7002L0 96.4002V127.4L93 73.6002L93.1 42.7002Z" fill="#ABABAB"/>
<path d="M146.7 352.2L280.2 274.8L280.5 243.7L146.6 321.1L146.7 352.2Z" fill="#ABABAB"/>
<path d="M254.499 507.2L280.499 522.2L319.999 499.3V468.4L253.699 506.7L254.499 507.2Z" fill="#ABABAB"/>
<path d="M254.1 352.3L280.6 367.6L320 344.8V313.9L254 352.2L254.1 352.3Z" fill="#ABABAB"/>
<path d="M227.3 150.8L227 120L146.6 166.4L173.5 181.9L227.3 150.8Z" fill="#ABABAB"/>
<path d="M320.001 173.2V158.6L307.301 165.8L320.001 173.2Z" fill="#ABABAB"/>
<path d="M93.7996 507.2L200.4 444.7L200.2 413.9L66.0996 491.3L93.7996 507.2Z" fill="#ABABAB"/>
<path d="M307.301 11.7004L320.001 19.1004V4.40039L307.301 11.7004Z" fill="#D6D6D6"/>
<path d="M66.1 491.3L200.2 413.9L12.7 305.6L0 312.9V344L12.8 336.6L146.6 413.9V414L12.8 491.3L93.1 537.7L92.6 538L66.4 553.1L40.6 568H94.2L146.6 537.7L66.1 491.3Z" fill="#D6D6D6"/>
<path d="M94.1992 568H146.699L146.599 537.7L94.1992 568Z" fill="#ABABAB"/>
<path d="M66.4 27.2L39.6 11.7L59.8 0H6.3L0 3.6V19.8L39.6 42.6L12.4 58.3L0 65.5V96.4L93.1 42.6L66.4 27.2Z" fill="#D6D6D6"/>
<path d="M66.3996 27.2L113.4 0H59.7996L39.5996 11.7L66.3996 27.2Z" fill="#ABABAB"/>
<path d="M226.999 27.2L274.099 0H220.499L200.199 11.7L226.999 27.2Z" fill="#ABABAB"/>
<path d="M253.699 166.4L319.999 204.7V173.2L307.299 165.8L319.999 158.6V128.1L307.299 135.5L253.699 166.4Z" fill="#D6D6D6"/>
<path d="M320 421.3V390.3L280.6 367.6L254.1 352.3L254 352.2L320 313.9V282.9L200.4 352.2L320 421.3Z" fill="#D6D6D6"/>
<path d="M320 111.9V80.9L200.2 11.7L220.5 0H166.9L146.6 11.7L320 111.9Z" fill="#D6D6D6"/>
<path d="M280.499 522.2L254.499 507.2L253.699 506.7L319.999 468.4V437.4L200.199 506.7V506.8L305.999 568H319.999V545L280.499 522.2Z" fill="#D6D6D6"/>
</svg>
