<svg fill="none" viewBox="0 0 166 209">
    <path d="M137.912 113.447v-31.83L55.17 129.361v31.861l82.742-47.776z" fill="#242424"/>
    <path d="M0 161.223l82.742 47.776v-31.831l-27.57-15.945v-31.83L27.57 113.448V81.617L0 65.672v95.551z" fill="#FFB68C"/>
    <path d="M165.484 161.253v-31.86l-82.742 47.775v31.831l82.742-47.746zM110.315 65.702v-31.86L27.572 81.618v31.83l82.743-47.746z" fill="#242424"/>
    <path d="M110.315 65.672l-82.743 47.776 27.6 15.945 82.743-47.776-27.6-15.945zM82.742 17.927L0 65.673l27.57 15.945 82.743-47.776-27.57-15.915zM137.912 113.448L55.17 161.224l27.57 15.945 82.743-47.776-27.571-15.945z" fill="#E4E4E4"/>
    <path d="M88.716 166.993l29.671-17.128v-22.808l-29.76 17.039.089 22.897z" fill="#ABABAB"/>
    <path d="M98.626 115.639l19.761 11.419-29.76 17.039-19.672-11.33 29.671-17.128z" fill="#fff"/>
    <path d="M68.955 155.9l9.88-6.005-9.88-17.128 19.672 11.359.09 22.897L68.954 155.9z" fill="#CACACA"/>
    <path d="M22.277 13.43L45.53 0l11.596 60.378-23.222 13.4L22.277 13.43z" fill="#ABABAB"/>
    <path d="M22.276 13.432L10.65 60.379 33.902 73.78 22.276 13.432z" fill="#CACACA"/>
    <path d="M66.62 117.62l16.034-9.23 8.017-32.393-16.033-18.519-16.034 9.26-7.928 32.452 15.945 18.43z" fill="#ABABAB"/>
    <path d="M66.62 52.863l8.018 4.615-16.034 9.26-7.928-4.556 15.945-9.319z" fill="#fff"/>
    <path d="M42.6 94.517l16.004 18.489 8.017 4.615-15.945-18.43-8.076-4.674z" fill="#ABABAB"/>
    <path d="M50.705 99.16L42.6 94.486l8.105-32.334 7.928 4.586-7.928 32.422z" fill="#CACACA"/>
  </svg>
