<svg width="244" height="124" viewBox="0 0 244 124" fill="none" xmlns="http://www.w3.org/2000/svg">
<path d="M152.305 1.07617L152.302 61.6529H122.127V61.6498H121.993V31.3477H91.7773V1.07617H152.305Z" fill="#ABABAB" stroke="#FFFBF9" stroke-width="2" stroke-miterlimit="10"/>
<path d="M1 1.07324L1.00305 61.65H31.1786V61.6469H31.3127V31.3448H61.5278V1.07324H1Z" fill="#ABABAB" stroke="#FFFBF9" stroke-width="2" stroke-miterlimit="10"/>
<path d="M91.7752 91.9434H1.11133V122.215H91.7752V91.9434Z" fill="#ABABAB" stroke="#FFFBF9" stroke-width="2" stroke-miterlimit="10"/>
<path d="M152.332 31.2716V1H182.489V30.0729H182.495V31.2899H242.999V61.5615H152.335V31.2716H152.332Z" fill="#ABABAB" stroke="#FFFBF9" stroke-width="2" stroke-miterlimit="10"/>
<path d="M242.904 92.0889H122.086V122.36H242.904V92.0889Z" fill="#ABABAB" stroke="#FFFBF9" stroke-width="2" stroke-miterlimit="10"/>
<path d="M122.081 61.6406L122.078 122.217H91.902V122.214H91.7679V91.9122H61.5527V61.6406H122.081Z" fill="#ABABAB" stroke="#FFFBF9" stroke-width="2" stroke-miterlimit="10"/>
<path d="M61.6392 91.9322L61.6361 31.3555H31.4605V31.3585H31.3265V61.6607H1.11133V91.9322H61.6392Z" fill="#ABABAB" stroke="#FFFBF9" stroke-width="2" stroke-miterlimit="10"/>
<path d="M242.864 61.5762H212.707V91.8477H242.864V61.5762Z" fill="#FFB68C" stroke="#FFFBF9" stroke-width="2" stroke-miterlimit="10"/>
<path d="M212.762 61.6719H122.098V91.9434H212.762V61.6719Z" fill="#ABABAB" stroke="#FFFBF9" stroke-width="2" stroke-miterlimit="10"/>
<path d="M61.5156 61.6685L61.5187 1.0918H91.6943V1.09485H91.8283V31.397H122.043V61.6685H61.5156Z" fill="#ABABAB" stroke="#FFFBF9" stroke-width="2" stroke-miterlimit="10"/>
<path d="M242.99 1.04004H182.551V31.3116H242.99V1.04004Z" fill="#ABABAB" stroke="#FFFBF9" stroke-width="2" stroke-miterlimit="10"/>
<path d="M19.3008 109.463H20.7264C20.7264 109.9 21.0158 110.121 21.3905 110.121C21.7438 110.121 22.0545 109.91 22.0545 109.5V104.886H23.4984V109.589C23.4984 110.909 22.4993 111.466 21.3905 111.466C20.3091 111.469 19.3008 110.867 19.3008 109.463Z" fill="#FFFBF9"/>
<path d="M26.7386 104.886H28.0454L30.8053 111.359H29.2974L28.7247 109.992H26.0532L25.4805 111.359H23.9727L26.7386 104.886ZM28.2008 108.735L27.3935 106.785L26.5863 108.735H28.2008Z" fill="#FFFBF9"/>
<path d="M30.0449 104.886H31.6168L33.3348 109.197L35.0407 104.886H36.6308L33.9867 111.359H32.689L30.0449 104.886Z" fill="#FFFBF9"/>
<path d="M38.6273 104.886H39.9341L42.6939 111.359H41.1861L40.6134 109.992H37.9419L37.3692 111.359H35.8613L38.6273 104.886ZM40.0895 108.735L39.2822 106.785L38.475 108.735H40.0895Z" fill="#FFFBF9"/>
<path d="M46.7891 109.281H48.233C48.3243 109.828 48.7691 110.128 49.3326 110.128C49.8139 110.128 50.1673 109.917 50.1673 109.553C50.1673 109.253 49.9388 109.014 49.3235 108.849L48.696 108.684C47.6694 108.412 46.9627 107.755 46.9536 106.743C46.9444 105.52 47.8339 104.773 49.1681 104.773C50.5755 104.773 51.4558 105.804 51.4924 106.798H50.0576C49.9114 106.287 49.5124 106.113 49.1681 106.113C48.7508 106.113 48.4157 106.296 48.4066 106.642C48.3975 106.996 48.6868 107.207 49.1864 107.336L49.9236 107.528C50.9776 107.801 51.6295 108.495 51.6295 109.507C51.6295 110.611 50.7217 111.467 49.3326 111.467C47.7334 111.47 46.8439 110.366 46.7891 109.281Z" fill="#FFFBF9"/>
<path d="M52.293 108.125C52.293 106.248 53.7094 104.78 55.6803 104.78C57.0968 104.78 58.4402 105.682 58.8149 107.113H57.243C56.9719 106.511 56.317 106.184 55.6803 106.184C54.4984 106.184 53.746 107.04 53.746 108.125C53.746 109.211 54.4984 110.067 55.6803 110.067C56.317 110.067 56.9689 109.74 57.243 109.138H58.8149C58.4432 110.569 57.0968 111.471 55.6803 111.471C53.7094 111.471 52.293 110.003 52.293 108.125Z" fill="#FFFBF9"/>
<path d="M59.7109 104.886H62.2545C63.473 104.886 64.2528 105.76 64.2528 106.837C64.2528 107.674 63.808 108.213 62.9917 108.506L65.2702 111.359H63.5369L61.3924 108.687H61.1579V111.359H59.714V104.886H59.7109ZM62.0839 107.457C62.5104 107.457 62.8211 107.21 62.8211 106.837C62.8211 106.445 62.5134 106.216 62.0839 106.216H61.1579V107.457H62.0839Z" fill="#FFFBF9"/>
<path d="M65.7246 104.886H67.1685V111.359H65.7246V104.886Z" fill="#FFFBF9"/>
<path d="M70.7223 109.307H69.9791V111.359H68.5352V104.886H70.7254C72.023 104.886 72.9948 105.852 72.9948 107.103C72.9948 108.353 72.02 109.307 70.7223 109.307ZM70.704 106.256H69.976V107.95H70.704C71.2219 107.95 71.5935 107.577 71.5935 107.103C71.5935 106.619 71.2219 106.256 70.704 106.256Z" fill="#FFFBF9"/>
<path d="M75.0785 106.275H73.4336V104.89H78.1917V106.275H76.5285V111.363H75.0755V106.275H75.0785Z" fill="#FFFBF9"/>
<path d="M154.025 81.397L150.881 77.3945V81.397H149.438V74.9238H150.68L153.815 78.9172V74.9238H155.268V81.397H154.025Z" fill="#FFFBF9"/>
<path d="M156.266 78.1596C156.266 76.3189 157.755 74.8145 159.598 74.8145C161.432 74.8145 162.931 76.3189 162.931 78.1596C162.931 80.0004 161.432 81.5048 159.598 81.5048C157.755 81.5048 156.266 80.0004 156.266 78.1596ZM161.472 78.1596C161.472 77.1108 160.646 76.218 159.601 76.218C158.547 76.218 157.722 77.1108 157.722 78.1596C157.722 79.2084 158.547 80.1013 159.601 80.1013C160.643 80.1013 161.472 79.2084 161.472 78.1596Z" fill="#FFFBF9"/>
<path d="M163.934 74.9238H166.133C167.948 74.9238 169.42 76.364 169.42 78.1589C169.42 79.9538 167.948 81.394 166.133 81.394H163.934V74.9238ZM166.13 80.0639C167.22 80.0639 167.955 79.1986 167.955 78.1589C167.955 77.1193 167.22 76.254 166.13 76.254H165.377V80.0639H166.13Z" fill="#FFFBF9"/>
<path d="M170.426 74.9238H174.514V76.309H171.87V77.4679H173.969V78.853H171.87V80.0119H174.514V81.397H170.426V74.9238Z" fill="#FFFBF9"/>
<path d="M175.111 79.4983H176.537C176.537 79.9356 176.826 80.1557 177.201 80.1557C177.554 80.1557 177.865 79.9448 177.865 79.535V74.9209H179.309V79.6237C179.309 80.9446 178.31 81.5011 177.201 81.5011C176.12 81.5042 175.111 80.9049 175.111 79.4983Z" fill="#FFFBF9"/>
<path d="M180.234 79.3186H181.678C181.77 79.8659 182.214 80.1656 182.778 80.1656C183.259 80.1656 183.613 79.9546 183.613 79.5907C183.613 79.2911 183.384 79.0526 182.769 78.8875L182.141 78.7223C181.115 78.4502 180.405 77.7928 180.399 76.7807C180.39 75.5576 181.279 74.8115 182.613 74.8115C184.021 74.8115 184.901 75.842 184.938 76.8357H183.503C183.357 76.3251 182.958 76.1508 182.613 76.1508C182.196 76.1508 181.861 76.3343 181.852 76.6798C181.843 77.0345 182.132 77.2455 182.632 77.3739L183.369 77.5665C184.423 77.8387 185.075 78.5328 185.075 79.5449C185.075 80.6487 184.167 81.5049 182.778 81.5049C181.179 81.5049 180.289 80.4041 180.234 79.3186Z" fill="#FFFBF9"/>
<path d="M71.7578 75.5352H75.727V76.9203H73.2017V78.0883H75.1757V79.4735H73.2048V82.0083H71.7609V75.5352H71.7578Z" fill="#FFFBF9"/>
<path d="M76.707 75.5352H78.151V82.0083H76.707V75.5352Z" fill="#FFFBF9"/>
<path d="M79.5137 75.5352H82.0572C83.2757 75.5352 84.0556 76.4097 84.0556 77.486C84.0556 78.3238 83.6108 78.862 82.7944 79.1555L85.073 82.0083H83.3397L81.1952 79.3359H80.9606V82.0083H79.5167V75.5352H79.5137ZM81.8867 78.1036C82.3131 78.1036 82.6238 77.856 82.6238 77.4829C82.6238 77.0915 82.3162 76.8622 81.8867 76.8622H80.9606V78.1036H81.8867Z" fill="#FFFBF9"/>
<path d="M85.5293 75.5352H89.6173V76.9203H86.9732V78.0792H89.072V79.4643H86.9732V80.6232H89.6173V82.0083H85.5293V75.5352Z" fill="#FFFBF9"/>
<path d="M90.709 75.5352H93.1337C94.1877 75.5352 95.0498 76.3913 95.0498 77.4585C95.0498 77.9141 94.867 78.2963 94.5868 78.5715C95.1321 78.8528 95.5037 79.4093 95.5037 80.1034C95.5037 81.1705 94.6508 82.0083 93.5419 82.0083H90.709V75.5352ZM92.9723 78.1495C93.3622 78.1495 93.6455 77.859 93.6455 77.5104C93.6455 77.1557 93.3653 76.853 92.9723 76.853H92.1559V78.1464H92.9723V78.1495ZM93.4262 80.6752C93.807 80.6752 94.0994 80.3939 94.0994 80.0269C94.0994 79.6722 93.81 79.3787 93.4171 79.3787H92.1559V80.6721H93.4262V80.6752Z" fill="#FFFBF9"/>
<path d="M98.3695 75.5352H99.6763L102.436 82.0083H100.928L100.356 80.6415H97.6841L97.1114 82.0083H95.6035L98.3695 75.5352ZM99.8316 79.3818L99.0244 77.4309L98.2172 79.3818H99.8316Z" fill="#FFFBF9"/>
<path d="M102.49 79.93H103.934C104.026 80.4773 104.47 80.777 105.034 80.777C105.515 80.777 105.868 80.566 105.868 80.2021C105.868 79.9025 105.64 79.664 105.025 79.4988L104.397 79.3337C103.371 79.0616 102.664 78.4042 102.655 77.392C102.646 76.1689 103.535 75.4229 104.869 75.4229C106.277 75.4229 107.157 76.4533 107.194 77.4471H105.759C105.613 76.9364 105.214 76.7621 104.869 76.7621C104.452 76.7621 104.117 76.9456 104.108 77.2911C104.099 77.6458 104.388 77.8568 104.888 77.9852L105.625 78.1779C106.679 78.45 107.331 79.1441 107.331 80.1562C107.331 81.2601 106.423 82.1163 105.034 82.1163C103.435 82.1163 102.545 81.0155 102.49 79.93Z" fill="#FFFBF9"/>
<path d="M108.35 75.5352H112.438V76.9203H109.794V78.0792H111.892V79.4643H109.794V80.6232H112.438V82.0083H108.35V75.5352Z" fill="#FFFBF9"/>
<path d="M218.973 77.5493C218.973 75.6718 220.389 74.2041 222.36 74.2041C223.777 74.2041 225.12 75.1061 225.495 76.5372H223.923C223.652 75.9348 222.997 75.6076 222.36 75.6076C221.178 75.6076 220.426 76.4638 220.426 77.5493C220.426 78.6348 221.178 79.4909 222.36 79.4909C222.997 79.4909 223.649 79.1637 223.923 78.5614H225.495C225.123 79.9924 223.78 80.8944 222.36 80.8944C220.389 80.8944 218.973 79.4267 218.973 77.5493Z" fill="#FFFBF9"/>
<path d="M225.998 78.7034H227.442C227.533 79.2507 227.978 79.5504 228.542 79.5504C229.023 79.5504 229.376 79.3394 229.376 78.9755C229.376 78.6759 229.151 78.4374 228.532 78.2723L227.905 78.1071C226.878 77.835 226.172 77.1776 226.163 76.1655C226.153 74.9424 227.043 74.1963 228.38 74.1963C229.787 74.1963 230.668 75.2267 230.704 76.2205H229.27C229.123 75.7099 228.724 75.5356 228.38 75.5356C227.963 75.5356 227.628 75.719 227.619 76.0646C227.609 76.4193 227.899 76.6303 228.398 76.7587L229.136 76.9513C230.19 77.2235 230.845 77.9176 230.845 78.9297C230.845 80.0335 229.937 80.8897 228.548 80.8897C226.942 80.8928 226.053 79.7889 225.998 78.7034Z" fill="#FFFBF9"/>
<path d="M231.469 78.7034H232.913C233.004 79.2507 233.449 79.5504 234.012 79.5504C234.494 79.5504 234.847 79.3394 234.847 78.9755C234.847 78.6759 234.619 78.4374 234.003 78.2723L233.376 78.1071C232.349 77.835 231.639 77.1776 231.633 76.1655C231.624 74.9424 232.514 74.1963 233.851 74.1963C235.258 74.1963 236.139 75.2267 236.175 76.2205H234.74C234.594 75.7099 234.195 75.5356 233.851 75.5356C233.434 75.5356 233.098 75.719 233.089 76.0646C233.08 76.4193 233.37 76.6303 233.869 76.7587L234.606 76.9513C235.66 77.2235 236.315 77.9176 236.315 78.9297C236.315 80.0335 235.407 80.8897 234.018 80.8897C232.413 80.8928 231.524 79.7889 231.469 78.7034Z" fill="#FFFBF9"/>
<path d="M160.583 108.802L159.212 111.976H157.841L156.352 105.503H157.896L158.776 109.606L160.583 105.393L162.398 109.606L163.279 105.503H164.823L163.324 111.976H161.954L160.583 108.802Z" fill="#FFFBF9"/>
<path d="M165.207 108.737C165.207 106.896 166.697 105.392 168.54 105.392C170.373 105.392 171.872 106.896 171.872 108.737C171.872 110.578 170.373 112.082 168.54 112.082C166.697 112.082 165.207 110.578 165.207 108.737ZM170.41 108.737C170.41 107.688 169.584 106.795 168.54 106.795C167.486 106.795 166.66 107.688 166.66 108.737C166.66 109.786 167.486 110.678 168.54 110.678C169.584 110.678 170.41 109.786 170.41 108.737Z" fill="#FFFBF9"/>
<path d="M172.871 105.498H175.415C176.633 105.498 177.413 106.373 177.413 107.449C177.413 108.287 176.968 108.825 176.152 109.118L178.43 111.971H176.694L174.55 109.299H174.315V111.971H172.871V105.498ZM175.241 108.07C175.667 108.07 175.978 107.822 175.978 107.449C175.978 107.057 175.671 106.828 175.241 106.828H174.315V108.07H175.241Z" fill="#FFFBF9"/>
<path d="M178.885 105.498H181.081C182.897 105.498 184.368 106.938 184.368 108.733C184.368 110.528 182.897 111.968 181.081 111.968H178.885V105.498ZM181.081 110.641C182.172 110.641 182.906 109.776 182.906 108.736C182.906 107.697 182.172 106.831 181.081 106.831H180.329V110.641H181.081Z" fill="#FFFBF9"/>
<path d="M187.564 109.92H186.821V111.971H185.377V105.498H187.567C188.865 105.498 189.837 106.464 189.837 107.715C189.837 108.966 188.862 109.92 187.564 109.92ZM187.546 106.868H186.821V108.562H187.546C188.064 108.562 188.435 108.189 188.435 107.715C188.435 107.232 188.064 106.868 187.546 106.868Z" fill="#FFFBF9"/>
<path d="M190.763 105.498H193.306C194.525 105.498 195.305 106.373 195.305 107.449C195.305 108.287 194.86 108.825 194.044 109.118L196.322 111.971H194.586L192.441 109.299H192.204V111.971H190.76V105.498H190.763ZM193.133 108.07C193.559 108.07 193.87 107.822 193.87 107.449C193.87 107.057 193.562 106.828 193.133 106.828H192.207V108.07H193.133Z" fill="#FFFBF9"/>
<path d="M196.773 105.498H200.861V106.883H198.217V108.042H200.316V109.427H198.217V110.586H200.861V111.971H196.773V105.498Z" fill="#FFFBF9"/>
<path d="M201.566 109.892H203.01C203.102 110.439 203.546 110.739 204.11 110.739C204.591 110.739 204.945 110.528 204.945 110.164C204.945 109.864 204.719 109.626 204.101 109.461L203.473 109.296C202.447 109.023 201.74 108.366 201.731 107.354C201.722 106.131 202.611 105.385 203.949 105.385C205.356 105.385 206.236 106.415 206.273 107.409H204.838C204.692 106.898 204.293 106.724 203.949 106.724C203.531 106.724 203.196 106.908 203.187 107.253C203.178 107.608 203.467 107.819 203.967 107.947L204.704 108.14C205.758 108.412 206.413 109.106 206.413 110.118C206.413 111.222 205.505 112.078 204.116 112.078C202.514 112.081 201.621 110.977 201.566 109.892Z" fill="#FFFBF9"/>
<path d="M207.035 109.892H208.479C208.57 110.439 209.015 110.739 209.579 110.739C210.06 110.739 210.413 110.528 210.413 110.164C210.413 109.864 210.185 109.626 209.57 109.461L208.942 109.296C207.916 109.023 207.206 108.366 207.2 107.354C207.191 106.131 208.08 105.385 209.417 105.385C210.825 105.385 211.705 106.415 211.742 107.409H210.307C210.161 106.898 209.762 106.724 209.417 106.724C209 106.724 208.665 106.908 208.656 107.253C208.647 107.608 208.936 107.819 209.436 107.947L210.173 108.14C211.227 108.412 211.882 109.106 211.882 110.118C211.882 111.222 210.974 112.078 209.585 112.078C207.979 112.081 207.09 110.977 207.035 109.892Z" fill="#FFFBF9"/>
<path d="M17.399 77.5531V81.5465H15.9551V75.0732H17.271L19.2876 77.8619L21.3042 75.0732H22.6202V81.5465H21.1671V77.5531L19.2876 80.1705L17.399 77.5531Z" fill="#FFFBF9"/>
<path d="M25.7267 78.8229L23.375 75.0771H25.0565L26.4456 77.4102L27.8529 75.0771H29.5344L27.1827 78.8321V81.5473H25.7297V78.8229H25.7267Z" fill="#FFFBF9"/>
<path d="M29.6328 79.4681H31.0767C31.1681 80.0154 31.6128 80.3151 32.1764 80.3151C32.6577 80.3151 33.011 80.1041 33.011 79.7402C33.011 79.4405 32.7826 79.202 32.1672 79.0369L31.5397 78.8718C30.5132 78.5997 29.8064 77.9422 29.7973 76.9301C29.7882 75.707 30.6777 74.9609 32.0119 74.9609C33.4192 74.9609 34.2996 75.9914 34.3361 76.9852H32.9014C32.7552 76.4745 32.3561 76.3002 32.0119 76.3002C31.5946 76.3002 31.2595 76.4837 31.2503 76.8292C31.2412 77.1839 31.5306 77.3949 32.0302 77.5233L32.7673 77.716C33.8213 77.9881 34.4732 78.6822 34.4732 79.6943C34.4732 80.7982 33.5654 81.6543 32.1764 81.6543C30.5771 81.6574 29.6846 80.5536 29.6328 79.4681Z" fill="#FFFBF9"/>
<path d="M35.125 78.3129C35.125 76.4722 36.6146 74.9678 38.4575 74.9678C40.2914 74.9678 41.7901 76.4722 41.7901 78.3129C41.7901 78.9428 41.6165 79.5269 41.3179 80.0283L43.1792 81.5511H41.1352L40.4528 80.9946C39.8893 81.4135 39.2008 81.6611 38.4545 81.6611C36.6146 81.6581 35.125 80.1537 35.125 78.3129ZM39.2952 80.0436L38.3783 79.2975L39.1947 78.2946L40.1665 79.0865C40.2761 78.848 40.331 78.5851 40.331 78.3099C40.331 77.2611 39.5054 76.3682 38.4606 76.3682C37.4066 76.3682 36.5811 77.2611 36.5811 78.3099C36.5811 79.3587 37.4066 80.2515 38.4606 80.2515C38.7591 80.2546 39.0485 80.1812 39.2952 80.0436Z" fill="#FFFBF9"/>
<path d="M43.1172 75.0732H44.5611V80.1613H47.2326V81.5465H43.1172V75.0732Z" fill="#FFFBF9"/>
<path d="M175.688 46.5169V50.5103H174.244V44.0371H175.56L177.577 46.8258L179.593 44.0371H180.909V50.5103H179.456V46.5169L177.577 49.1343L175.688 46.5169Z" fill="#FFFBF9"/>
<path d="M181.908 47.2748C181.908 45.4341 183.398 43.9297 185.241 43.9297C187.075 43.9297 188.573 45.4341 188.573 47.2748C188.573 49.1156 187.075 50.62 185.241 50.62C183.398 50.62 181.908 49.1156 181.908 47.2748ZM187.114 47.2748C187.114 46.226 186.289 45.3332 185.244 45.3332C184.19 45.3332 183.364 46.226 183.364 47.2748C183.364 48.3236 184.19 49.2165 185.244 49.2165C186.286 49.2165 187.114 48.3236 187.114 47.2748Z" fill="#FFFBF9"/>
<path d="M194.16 50.5103L191.016 46.5078V50.5103H189.572V44.0371H190.815L193.95 48.0305V44.0371H195.403V50.5103H194.16Z" fill="#FFFBF9"/>
<path d="M196.412 47.2748C196.412 45.3974 197.829 43.9297 199.799 43.9297C201.106 43.9297 202.38 44.6941 202.834 45.9539H201.17C200.863 45.5442 200.317 45.3332 199.799 45.3332C198.618 45.3332 197.865 46.1894 197.865 47.2748C197.865 48.3603 198.618 49.2165 199.818 49.2165C200.78 49.2165 201.335 48.7334 201.49 47.9506H199.638V46.593H202.989C203.306 49.3358 201.755 50.6231 199.818 50.6231C197.829 50.62 196.412 49.1523 196.412 47.2748Z" fill="#FFFBF9"/>
<path d="M203.686 47.2748C203.686 45.4341 205.175 43.9297 207.018 43.9297C208.852 43.9297 210.351 45.4341 210.351 47.2748C210.351 49.1156 208.852 50.62 207.018 50.62C205.175 50.62 203.686 49.1156 203.686 47.2748ZM208.892 47.2748C208.892 46.226 208.066 45.3332 207.021 45.3332C205.967 45.3332 205.142 46.226 205.142 47.2748C205.142 48.3236 205.967 49.2165 207.021 49.2165C208.063 49.2165 208.892 48.3236 208.892 47.2748Z" fill="#FFFBF9"/>
<path d="M211.35 44.0371H213.549C215.364 44.0371 216.836 45.4773 216.836 47.2722C216.836 49.0671 215.364 50.5073 213.549 50.5073H211.35V44.0371ZM213.549 49.1802C214.639 49.1802 215.374 48.3149 215.374 47.2752C215.374 46.2356 214.636 45.3703 213.549 45.3703H212.797V49.1802H213.549Z" fill="#FFFBF9"/>
<path d="M217.844 44.0371H220.269C221.323 44.0371 222.185 44.8933 222.185 45.9604C222.185 46.416 222.002 46.7982 221.722 47.0734C222.267 47.3547 222.638 47.9113 222.638 48.6054C222.638 49.6725 221.786 50.5103 220.677 50.5103H217.844V44.0371ZM220.104 46.6545C220.494 46.6545 220.777 46.364 220.777 46.0155C220.777 45.6608 220.497 45.3581 220.104 45.3581H219.288V46.6515H220.104V46.6545ZM220.558 49.1802C220.939 49.1802 221.231 48.8989 221.231 48.532C221.231 48.1773 220.942 47.8837 220.549 47.8837H219.288V49.1772H220.558V49.1802Z" fill="#FFFBF9"/>
<path d="M114.741 18.3014H113.995V20.3531H112.551V13.8799H114.741C116.039 13.8799 117.01 14.8461 117.01 16.0967C117.01 17.3443 116.039 18.3014 114.741 18.3014ZM114.723 15.2467H113.995V16.9407H114.723C115.241 16.9407 115.612 16.5676 115.612 16.0937C115.612 15.6106 115.241 15.2467 114.723 15.2467Z" fill="#FFFBF9"/>
<path d="M117.939 13.8799H119.383V16.4147H121.982V13.8799H123.426V20.3531H121.982V17.7907H119.383V20.3531H117.939V13.8799Z" fill="#FFFBF9"/>
<path d="M126.972 18.3014H126.229V20.3531H124.785V13.8799H126.975C128.273 13.8799 129.245 14.8461 129.245 16.0967C129.245 17.3443 128.273 18.3014 126.972 18.3014ZM126.954 15.2467H126.229V16.9407H126.954C127.472 16.9407 127.844 16.5676 127.844 16.0937C127.847 15.6106 127.472 15.2467 126.954 15.2467Z" fill="#FFFBF9"/>
<path d="M15.9707 14.9932H18.5143C19.7327 14.9932 20.5126 15.8677 20.5126 16.944C20.5126 17.7818 20.0678 18.32 19.2515 18.6135L21.53 21.4664H19.7967L17.6522 18.7939H17.4176V21.4664H15.9737V14.9932H15.9707ZM18.3437 17.5617C18.7702 17.5617 19.0809 17.314 19.0809 16.9409C19.0809 16.5495 18.7732 16.3202 18.3437 16.3202H17.4176V17.5617H18.3437Z" fill="#FFFBF9"/>
<path d="M21.9844 14.9932H26.0724V16.3783H23.4283V17.5372H25.5271V18.9223H23.4283V20.0812H26.0724V21.4664H21.9844V14.9932Z" fill="#FFFBF9"/>
<path d="M27.168 14.9932H29.3673C31.1829 14.9932 32.6542 16.4334 32.6542 18.2282C32.6542 20.0231 31.1829 21.4633 29.3673 21.4633H27.168V14.9932ZM29.3673 20.1332C30.4579 20.1332 31.192 19.2679 31.192 18.2282C31.192 17.1886 30.4548 16.3233 29.3673 16.3233H28.6149V20.1332H29.3673Z" fill="#FFFBF9"/>
<path d="M33.5898 18.904V14.9932H35.0337V18.9223C35.0337 19.696 35.5242 20.1699 36.2431 20.1699C36.962 20.1699 37.4524 19.696 37.4524 18.9223V14.9932H38.8963V18.904C38.8963 20.5185 37.7875 21.5765 36.2431 21.5765C34.6895 21.5734 33.5898 20.5154 33.5898 18.904Z" fill="#FFFBF9"/>
<path d="M42.7059 19.3228L41.1067 21.4662H39.416L41.8317 18.1945L39.5622 14.9961H41.2346L42.6968 17.0753L44.159 14.9961H45.8313L43.571 18.1945L45.9775 21.4662H44.296L42.7059 19.3228Z" fill="#FFFBF9"/>
<path d="M77.8496 45.5684H80.3932C81.6116 45.5684 82.3915 46.4429 82.3915 47.5192C82.3915 48.357 81.9467 48.8952 81.1303 49.1887L83.4089 52.0416H81.6756L79.5311 49.3691H79.2965V52.0416H77.8527V45.5684H77.8496ZM80.2226 48.1369C80.6491 48.1369 80.9598 47.8892 80.9598 47.5161C80.9598 47.1247 80.6521 46.8954 80.2226 46.8954H79.2965V48.1369H80.2226Z" fill="#FFFBF9"/>
<path d="M83.8633 45.5684H87.9513V46.9535H85.3072V48.1124H87.406V49.4975H85.3072V50.6564H87.9513V52.0416H83.8633V45.5684Z" fill="#FFFBF9"/>
<path d="M91.1175 45.5684H92.4243L95.1842 52.0416H93.6763L93.1036 50.6748H90.4321L89.8594 52.0416H88.3516L91.1175 45.5684ZM92.5797 49.415L91.7724 47.4642L90.9652 49.415H92.5797Z" fill="#FFFBF9"/>
<path d="M95.2168 48.8041C95.2168 46.9267 96.6333 45.459 98.6042 45.459C100.021 45.459 101.364 46.361 101.739 47.792H100.167C99.8957 47.1897 99.2408 46.8625 98.6042 46.8625C97.4222 46.8625 96.6698 47.7186 96.6698 48.8041C96.6698 49.8896 97.4222 50.7458 98.6042 50.7458C99.2408 50.7458 99.8927 50.4186 100.167 49.8163H101.739C101.367 51.2473 100.021 52.1493 98.6042 52.1493C96.6333 52.1493 95.2168 50.6816 95.2168 48.8041Z" fill="#FFFBF9"/>
<path d="M103.705 46.9535H102.061V45.5684H106.819V46.9535H105.155V52.0416H103.702V46.9535H103.705Z" fill="#FFFBF9"/>
<path d="M203.098 18.7708H204.542C204.633 19.3181 205.078 19.6178 205.641 19.6178C206.123 19.6178 206.476 19.4068 206.476 19.0429C206.476 18.7433 206.247 18.5047 205.632 18.3396L205.005 18.1745C203.978 17.9024 203.268 17.245 203.262 16.2329C203.253 15.0098 204.142 14.2637 205.48 14.2637C206.887 14.2637 207.767 15.2941 207.804 16.2879H206.369C206.223 15.7772 205.824 15.603 205.48 15.603C205.062 15.603 204.727 15.7864 204.718 16.1319C204.709 16.4866 204.998 16.6976 205.498 16.8261L206.235 17.0187C207.289 17.2908 207.944 17.9849 207.944 18.997C207.944 20.1009 207.036 20.9571 205.647 20.9571C204.042 20.9601 203.152 19.8563 203.098 18.7708Z" fill="#FFFBF9"/>
<path d="M210.825 14.376H212.131L214.891 20.8492H213.383L212.811 19.4824H210.139L209.566 20.8492H208.059L210.825 14.376ZM212.287 18.2257L211.479 16.2748L210.672 18.2257H212.287Z" fill="#FFFBF9"/>
<path d="M214.947 18.7708H216.391C216.483 19.3181 216.927 19.6178 217.491 19.6178C217.972 19.6178 218.325 19.4068 218.325 19.0429C218.325 18.7433 218.097 18.5047 217.482 18.3396L216.854 18.1745C215.828 17.9024 215.121 17.245 215.112 16.2329C215.103 15.0098 215.992 14.2637 217.326 14.2637C218.734 14.2637 219.614 15.2941 219.651 16.2879H218.216C218.07 15.7772 217.671 15.603 217.326 15.603C216.909 15.603 216.574 15.7864 216.565 16.1319C216.556 16.4866 216.845 16.6976 217.345 16.8261L218.082 17.0187C219.136 17.2908 219.788 17.9849 219.788 18.997C219.788 20.1009 218.88 20.9571 217.491 20.9571C215.892 20.9601 215.002 19.8563 214.947 18.7708Z" fill="#FFFBF9"/>
<path d="M220.416 18.7708H221.86C221.951 19.3181 222.396 19.6178 222.96 19.6178C223.441 19.6178 223.794 19.4068 223.794 19.0429C223.794 18.7433 223.569 18.5047 222.95 18.3396L222.323 18.1745C221.296 17.9024 220.59 17.245 220.581 16.2329C220.571 15.0098 221.461 14.2637 222.798 14.2637C224.205 14.2637 225.086 15.2941 225.122 16.2879H223.688C223.541 15.7772 223.142 15.603 222.798 15.603C222.381 15.603 222.046 15.7864 222.037 16.1319C222.027 16.4866 222.317 16.6976 222.816 16.8261L223.554 17.0187C224.608 17.2908 225.263 17.9849 225.263 18.997C225.263 20.1009 224.355 20.9571 222.966 20.9571C221.36 20.9601 220.471 19.8563 220.416 18.7708Z" fill="#FFFBF9"/>
</svg>
