<svg width="375" height="320" viewBox="0 0 375 320" fill="none" xmlns="http://www.w3.org/2000/svg">
<path d="M305.32 265.253L305.288 265.252L305.255 265.256C295.284 266.318 285.004 270.742 274.683 276.063C270.699 278.117 266.716 280.3 262.738 282.481C256.372 285.97 250.019 289.451 243.696 292.385C233.44 297.144 223.387 300.395 213.739 299.814C204.129 299.234 194.856 294.848 186.142 284.199C169.83 258.754 158.633 243.142 145.315 232.574C131.985 221.996 116.57 216.499 91.9019 211.174C87.7352 209.33 83.6209 206.94 80.8595 202.293C78.0535 197.562 76.9653 191.299 76.2739 184.551C76.0709 182.569 75.9021 180.544 75.7325 178.509C75.3282 173.659 74.9191 168.75 74.0295 164.23C69.46 141.012 56.4583 129.617 44.7939 119.395C43.6429 118.387 42.5049 117.389 41.3894 116.393C35.1719 110.842 29.6717 105.349 26.3853 98.1319C23.1063 90.9316 22.0078 81.9593 24.7173 69.4158C29.2064 48.6338 39.875 31.0037 53.7997 20.2672C67.7131 9.53929 84.8732 5.69054 102.435 12.4267L102.457 12.4353L102.48 12.4416C109.88 14.4957 116.054 19.7204 121.756 26.396C125.945 31.3006 129.846 36.9454 133.782 42.6402C135.207 44.7035 136.638 46.7734 138.088 48.817C148.929 64.092 160.889 77.9207 180.025 75.076C190.766 75.7121 201.959 75.1859 213.194 74.6577C214.872 74.5788 216.552 74.4998 218.232 74.4247C231.182 73.8452 244.116 73.4926 256.49 75.1177C268.857 76.742 280.646 80.3403 291.306 87.6512C301.965 94.9611 311.528 106.004 319.41 122.566L319.419 122.584L319.429 122.601C320.959 125.241 322.779 129.565 324.799 134.525C325.127 135.329 325.46 136.15 325.797 136.982C327.533 141.263 329.391 145.844 331.308 150.072C333.594 155.113 335.984 159.699 338.38 162.691C339.576 164.184 340.807 165.324 342.067 165.907C343.221 166.439 344.396 166.501 345.539 165.959C349.446 171.41 352.26 179.13 353.911 187.956C355.596 196.965 356.062 207.089 355.26 217.051C354.458 227.014 352.391 236.797 349.019 245.127C345.649 253.457 340.991 260.296 335.031 264.435C330.262 267.295 325.402 267.583 320.441 267.107C318.429 266.914 316.414 266.597 314.381 266.277C313.898 266.201 313.413 266.124 312.928 266.049C310.409 265.661 307.865 265.315 305.32 265.253Z" fill="url(#paint0_linear)" stroke="#DFDFDF"/>
<defs>
<linearGradient id="paint0_linear" x1="198.219" y1="43.1636" x2="211.218" y2="309.28" gradientUnits="userSpaceOnUse">
<stop stop-color="#E2E2E2"/>
<stop offset="0.7908" stop-color="white" stop-opacity="0"/>
</linearGradient>
</defs>
</svg>
